<?xml version="1.0" encoding="UTF-8"?>
<!DOCTYPE svg PUBLIC "-//W3C//DTD SVG 1.1//EN" "http://www.w3.org/Graphics/SVG/1.1/DTD/svg11.dtd">
<!-- Creator: CorelDRAW X8 -->
<svg xmlns="http://www.w3.org/2000/svg" xml:space="preserve" width="50px" height="50px" version="1.1" style="shape-rendering:geometricPrecision; text-rendering:geometricPrecision; image-rendering:optimizeQuality; fill-rule:evenodd; clip-rule:evenodd"
viewBox="0 0 298 298"
 xmlns:xlink="http://www.w3.org/1999/xlink"
 enable-background="new 0 0 64 64">
 <defs>
  <style type="text/css">
   <![CDATA[
    .fil0 {fill:#72B3FD}
    .fil1 {fill:white}
   ]]>
  </style>
 </defs>
 <g id="Layer-33">
  <metadata id="CorelCorpID_0Corel-Layer"/>
  <g id="_1685945911520">
   <g>
    <g>
     <g>
      <path class="fil0" d="M115 154c0,-5 5,-10 10,-10 -5,0 -10,-4 -10,-9 0,-6 5,-10 10,-10 -1,0 -3,0 -4,-1 -10,10 -24,16 -39,16 -32,0 -58,-26 -58,-58 0,-32 26,-58 58,-58 32,0 58,26 58,58 0,1 -1,3 -1,5l10 0c5,0 10,-5 10,-10l0 -18c0,-1 0,-2 0,-4 -11,-32 -41,-55 -77,-55 -45,0 -82,37 -82,82 0,45 37,82 82,82 12,0 23,-3 34,-8 0,-1 -1,-1 -1,-2l0 0z"/>
     </g>
    </g>
    <g>
     <path class="fil1" d="M82 58c5,0 9,4 9,9l10 0c0,-9 -6,-16 -14,-18l0 -11 -10 0 0 10 -14 0 0 19c0,11 8,20 19,20 5,0 9,4 9,9l0 10 -9 0c-6,0 -10,-4 -10,-10l-9 0c0,9 6,17 14,19l0 10 10 0 0 -10 14 0 0 -19c0,-10 -9,-19 -19,-19 -6,0 -10,-4 -10,-10l0 -9 10 0z"/>
     <path class="fil1" d="M231 197l48 0c11,0 19,-8 19,-19l0 -38c0,-11 -8,-20 -19,-20l-19 0 0 -33 -48 0 0 9 -9 0c-6,0 -11,-2 -14,-6 -4,-3 -6,-8 -6,-14l0 -31c0,-6 -5,-11 -12,-11 -3,0 -6,1 -8,3 -6,6 -9,14 -9,22l0 18c0,3 -2,5 -5,5l-5 0c0,-35 -28,-63 -62,-63 -35,0 -63,28 -63,63 0,34 28,62 63,62 10,0 20,-2 29,-7 0,3 2,5 3,7 -2,3 -3,6 -3,10 0,8 6,14 14,14l66 0c5,0 10,-1 14,-4l7 -4 0 8 48 0 0 -38 19 0c5,0 10,4 10,10l0 38c0,5 -5,10 -10,10l-48 0c-11,0 -19,8 -19,19 0,10 8,19 19,19l48 0c5,0 10,4 10,10 0,5 -5,9 -10,9l-144 0c0,-24 -20,-43 -44,-43l-43 0c-26,0 -48,22 -48,48 0,27 22,48 48,48l43 0c24,0 44,-19 44,-43l144 0c11,0 19,-9 19,-19 0,-11 -8,-20 -19,-20l-48 0c-5,0 -10,-4 -10,-9 0,-5 5,-10 10,-10zm-202 -115c0,-29 24,-53 53,-53 29,0 53,24 53,53l-10 0c-8,0 -14,6 -14,14 0,4 1,7 3,10 -2,2 -3,6 -3,9 0,4 1,7 3,9 -10,7 -21,11 -32,11 -29,0 -53,-24 -53,-53l0 0zm181 67l-11 7c-2,2 -5,3 -8,3l-66 0c-3,0 -5,-2 -5,-5 0,-3 2,-5 5,-5l15 0 0 -9 -15 0c-3,0 -5,-3 -5,-5 0,-3 2,-5 5,-5l15 0 0 -10 -15 0c-3,0 -5,-2 -5,-5 0,-2 2,-4 5,-4l15 0 0 -10 -15 0c-3,0 -5,-2 -5,-5 0,-2 2,-5 5,-5l24 0c8,0 15,-6 15,-14l0 -18c0,-6 2,-11 6,-15 1,-1 3,0 3,1l0 31c0,8 3,16 9,21 5,6 13,9 21,9l9 0 0 43 -2 0zm40 10l-29 0 0 -63 29 0 0 63zm-126 77l-23 0c-6,0 -12,4 -14,9l-10 0 0 -33 14 0c16,0 29,10 33,24l0 0zm1 19l-24 0c-3,0 -5,-2 -5,-5 0,-2 2,-5 5,-5l24 0 0 10zm-115 -5c0,-21 17,-38 38,-38l19 0 0 77 -19 0c-21,0 -38,-18 -38,-39zm81 39l-14 0 0 -34 10 0c2,6 8,10 14,10l23 0c-4,13 -17,24 -33,24l0 0z"/>
    </g>
   </g>
  </g>
 </g>
</svg>
