<?xml version="1.0" encoding="UTF-8"?>
<!DOCTYPE svg PUBLIC "-//W3C//DTD SVG 1.1//EN" "http://www.w3.org/Graphics/SVG/1.1/DTD/svg11.dtd">
<!-- Creator: CorelDRAW X8 -->
<svg xmlns="http://www.w3.org/2000/svg" xml:space="preserve" width="47px" height="47px" version="1.1" style="shape-rendering:geometricPrecision; text-rendering:geometricPrecision; image-rendering:optimizeQuality; fill-rule:evenodd; clip-rule:evenodd"
viewBox="0 0 736 736"
 xmlns:xlink="http://www.w3.org/1999/xlink"
 enable-background="new 0 0 64 64">
 <defs>
  <style type="text/css">
   <![CDATA[
    .fil0 {fill:#72B3FD}
    .fil1 {fill:white}
   ]]>
  </style>
 </defs>
 <g id="Layer-34">
  <metadata id="CorelCorpID_0Corel-Layer"/>
  <g id="_1685939123792">
   <g>
    <g>
     <polygon class="fil0" points="261,558 356,558 356,653 261,653 "/>
    </g>
    <g>
     <path class="fil0" d="M77 415l108 0c45,-20 76,-66 76,-118 0,-72 -58,-131 -130,-131 -72,0 -131,59 -131,131 0,52 31,98 77,118l0 0z"/>
    </g>
    <g>
     <path class="fil0" d="M619 34l-78 -28c-11,-4 -22,-6 -34,-6 -31,0 -61,15 -80,40l-6 8c-23,3 -41,23 -41,47 0,26 12,59 12,61l0 22c0,-20 16,-36 35,-36l15 0 0 1c4,-20 16,-37 33,-48 0,0 71,47 130,47l12 0c16,0 29,10 34,24l-1 -3 13 -46c1,-6 2,-12 2,-17 0,-29 -19,-56 -46,-66l0 0z"/>
    </g>
    <g>
     <path class="fil1" d="M570 202l-24 0c0,13 -11,24 -24,24 -13,0 -23,-11 -23,-24l-24 0c0,26 21,47 47,47 27,0 48,-21 48,-47l0 0z"/>
     <circle class="fil1" cx="558" cy="166" r="12"/>
     <circle class="fil1" cx="487" cy="166" r="12"/>
     <path class="fil1" d="M736 413c0,-39 -26,-72 -64,-81l-92 -21 -7 -29c20,-12 35,-33 41,-56l3 0c27,0 48,-22 48,-48 0,-26 -21,-47 -48,-47l-12 0c-55,0 -123,-45 -124,-46l-6 -4 -7 4c-16,11 -29,27 -35,46l-6 0c-26,0 -47,21 -47,47 0,26 21,48 47,48l4 0c6,23 21,44 41,56l-7 29 -92 21c-35,8 -60,37 -64,72l-273 0c-20,0 -36,16 -36,35l0 261c0,20 16,36 36,36l332 0c20,0 36,-16 36,-36l0 -47 332 0 0 -240zm-332 -235c0,-13 10,-24 23,-24l1 0c0,3 -1,5 -1,8l0 40c-13,0 -23,-11 -23,-24l0 0zm12 168l20 -4 16 34 -36 -6 0 -24zm50 60l26 55 -47 -35 21 -20zm56 -21l3 -3 9 65 -12 24 -11 -24 8 -65 3 3zm57 21l20 20 -46 35 26 -55zm50 -60l0 24 -37 6 17 -34 20 4zm-44 -10l-33 70 -5 -46 27 -26 11 2zm56 -158c0,13 -11,24 -24,24l0 -48c13,0 24,11 24,24l0 0zm-190 24l0 -40c0,-21 9,-40 24,-53 19,12 70,40 119,45l0 48c0,39 -32,71 -72,71 -39,0 -71,-32 -71,-71l0 0zm71 95c10,0 20,-2 29,-5l6 25 -35 34 -34 -34 6 -25c9,3 19,5 28,5l0 0zm-51 37l27 26 -6 46 -32 -70 11 -2zm-435 93l332 0c7,0 12,6 12,12l0 60 -356 0 0 -60c0,-6 5,-12 12,-12l0 0zm332 285l-332 0c-7,0 -12,-5 -12,-12l0 -178 356 0 0 178c0,7 -5,12 -12,12l0 0zm0 -308l-35 0c4,-24 21,-43 45,-49l14 -3 0 38 48 8 -31 31 101 76 0 124 -106 0 0 -190c0,-19 -16,-35 -36,-35zm344 225l-47 0 0 -166 -24 0 0 166 -107 0 0 -124 101 -76 -30 -31 48 -8 0 -38 13 3c27,6 46,30 46,58l0 216z"/>
     <polygon class="fil1" points="558,534 582,534 582,558 558,558 "/>
     <polygon class="fil1" points="558,582 582,582 582,605 558,605 "/>
     <polygon class="fil1" points="47,451 71,451 71,475 47,475 "/>
     <polygon class="fil1" points="95,451 119,451 119,475 95,475 "/>
     <polygon class="fil1" points="142,451 166,451 166,475 142,475 "/>
     <polygon class="fil1" points="214,594 190,594 190,665 166,665 166,617 142,617 142,665 119,665 119,546 95,546 95,665 71,665 71,546 47,546 47,689 237,689 237,665 214,665 "/>
     <polygon class="fil1" points="261,546 356,546 356,570 261,570 "/>
     <polygon class="fil1" points="261,594 356,594 356,617 261,617 "/>
     <polygon class="fil1" points="261,641 356,641 356,665 261,665 "/>
     <path class="fil1" d="M119 332c-7,0 -12,-5 -12,-11l-24 0c0,19 16,35 36,35l0 24 23 0 0 -24 36 0 0 -35c0,-20 -16,-36 -36,-36l-23 0c-7,0 -12,-5 -12,-12l0 -12 35 0c7,0 12,5 12,12l24 0c0,-20 -16,-36 -36,-36l0 -23 -23 0 0 23 -36 0 0 36c0,20 16,36 36,36l23 0c7,0 12,5 12,12l0 11 -35 0z"/>
    </g>
   </g>
  </g>
 </g>
</svg>
