<svg xmlns="http://www.w3.org/2000/svg" width="54.124" height="49.97" viewBox="0 0 54.124 49.97"><path fill="#84C1F9" d="M29.996 20.103c-2.66-1.393-5.975-.357-7.368 2.302L12.37 41.982c-1.392 2.66-.356 5.975 2.303 7.368 2.66 1.393 5.975.357 7.368-2.302L32.3 27.47c1.394-2.658.358-5.974-2.3-7.367z"/><path fill="#FFF" d="M27.57 19.462l-22.102-.038C2.466 19.42.005 21.87 0 24.874c-.005 3.002 2.447 5.463 5.45 5.468l22.1.038c3.002.005 5.463-2.447 5.468-5.45.005-3.002-2.447-5.463-5.45-5.468z"/><path opacity=".8" fill="#84C1F9" d="M40.96 35.948l3.407 5.642c1.552 2.57.72 5.943-1.85 7.494-2.57 1.552-5.944.72-7.496-1.85l-3.405-5.643c-1.552-2.57-.72-5.94 1.85-7.493 2.572-1.55 5.945-.718 7.496 1.852z"/><path opacity=".8" fill="#FFF" d="M25.215 8.534L21.65 2.632C20.1.062 16.728-.77 14.158.782c-2.57 1.55-3.403 4.923-1.85 7.494l3.563 5.902c1.553 2.57 4.926 3.403 7.495 1.85 2.57-1.55 3.403-4.923 1.85-7.494z"/><path opacity=".6" fill="#FFF" d="M40.296.71c-2.652-1.41-5.973-.39-7.38 2.263l-3.08 5.807c-1.407 2.653-.387 5.974 2.265 7.38 2.654 1.407 5.975.388 7.38-2.264l3.08-5.807c1.41-2.654.39-5.975-2.263-7.38z"/><path opacity=".4" fill="#FFF" d="M48.647 19.405l-6.83.023c-3.003.01-5.452 2.474-5.44 5.477.01 3.002 2.473 5.45 5.476 5.44l6.83-.023c3.003-.01 5.45-2.475 5.44-5.477-.01-3.002-2.473-5.45-5.476-5.44z"/></svg>