<svg xmlns="http://www.w3.org/2000/svg" width="162.07" height="49.97" viewBox="0 0 162.07 49.97"><path d="M70.928 1.832v28.02c0 8.55 3.433 12.48 11.982 12.48 8.987 0 11.982-4.305 11.982-12.48V1.832h5.93v26.46c0 12.48-4.432 18.91-17.912 18.91C70.054 47.2 65 41.21 65 28.915V1.832h5.928zm55.916 0c7.363 0 14.167 2.933 14.167 11.108 0 4.368-2.56 8.113-6.55 9.548 5.49 1.248 8.55 5.367 8.55 11.233 0 10.24-8.36 12.55-16.85 12.55H107.88V1.83h18.97zm-13.23 19.034h10.547c4.998 0 10.99-.374 10.99-7.052 0-6.677-5.18-6.99-10.423-6.99H113.62v14.042zm0 20.47h11.732c5.93 0 11.733-.375 11.733-8.176 0-7.738-6.81-7.676-12.737-7.676H113.61v15.85zm48.456 4.93h-5.804V14.25h-11.108v-3.993c6.553 0 11.233-1.56 12.73-8.175h4.182v44.183z" fill="#FFF"/><path fill="#84C1F9" d="M29.996 20.103c-2.66-1.393-5.975-.357-7.368 2.302L12.37 41.982c-1.392 2.66-.356 5.975 2.303 7.368 2.66 1.393 5.975.357 7.368-2.302L32.3 27.47c1.394-2.658.358-5.974-2.3-7.367z"/><path fill="#FFF" d="M27.57 19.462l-22.102-.038C2.466 19.42.005 21.87 0 24.874c-.005 3.002 2.447 5.463 5.45 5.468l22.1.038c3.002.005 5.463-2.447 5.468-5.45.005-3.002-2.447-5.463-5.45-5.468z"/><path opacity=".8" fill="#84C1F9" d="M40.96 35.948l3.407 5.642c1.552 2.57.72 5.943-1.85 7.494-2.57 1.552-5.944.72-7.496-1.85l-3.4-5.644c-1.552-2.57-.72-5.94 1.85-7.49 2.572-1.55 5.945-.72 7.496 1.85z"/><path opacity=".8" fill="#FFF" d="M25.215 8.534L21.65 2.632C20.1.062 16.728-.77 14.158.782c-2.57 1.55-3.403 4.923-1.85 7.494l3.563 5.902c1.557 2.57 4.93 3.403 7.5 1.85 2.57-1.55 3.402-4.923 1.85-7.494z"/><path opacity=".6" fill="#FFF" d="M40.296.71c-2.652-1.41-5.973-.39-7.38 2.263l-3.08 5.807c-1.407 2.653-.387 5.974 2.265 7.38 2.658 1.407 5.98.388 7.38-2.264l3.08-5.807c1.41-2.658.39-5.98-2.26-7.38z"/><path opacity=".4" fill="#FFF" d="M48.647 19.405l-6.83.023c-3.002.01-5.45 2.474-5.44 5.477.01 3.002 2.474 5.45 5.477 5.44l6.83-.023c3.003-.01 5.45-2.475 5.44-5.477-.01-3.002-2.474-5.45-5.477-5.44z"/></svg>