<?xml version="1.0" encoding="UTF-8"?>
<!DOCTYPE svg PUBLIC "-//W3C//DTD SVG 1.1//EN" "http://www.w3.org/Graphics/SVG/1.1/DTD/svg11.dtd">
<!-- Creator: CorelDRAW X8 -->
<svg xmlns="http://www.w3.org/2000/svg" xml:space="preserve" width="135px" height="135px" version="1.1" style="shape-rendering:geometricPrecision; text-rendering:geometricPrecision; image-rendering:optimizeQuality; fill-rule:evenodd; clip-rule:evenodd"
viewBox="0 0 1998 1998"
 xmlns:xlink="http://www.w3.org/1999/xlink">
 <defs>
  <style type="text/css">
   <![CDATA[
    .fil0 {fill:#1841A5}
    .fil1 {fill:#72B3FD}
    .fil2 {fill:white}
   ]]>
  </style>
 </defs>
 <g id="Layer-8">
  <metadata id="CorelCorpID_0Corel-Layer"/>
  <circle class="fil0" cx="999" cy="999" r="999"/>
 </g>
 <g id="Layer-28">
  <metadata id="CorelCorpID_1Corel-Layer"/>
  <g id="_1685945935680">
   <g>
    <rect class="fil1" x="805" y="437" width="243" height="137"/>
    <rect class="fil1" x="1094" y="1060" width="243" height="106"/>
    <rect class="fil1" x="638" y="1060" width="243" height="106"/>
    <g>
     <path class="fil1" d="M760 1015c-68,0 -122,-55 -122,-122 0,-67 54,-121 122,-121 67,0 121,54 121,121 0,67 -54,122 -121,122z"/>
    </g>
    <g>
     <path class="fil2" d="M1398 802l0 -91 -122 0 0 -198c0,-42 -34,-76 -76,-76 -42,0 -76,34 -76,76l0 110 -53 -64 -23 0 0 -31 -30 0 0 31 -30 0 0 -91 -31 0 0 91 -30 0 0 -61 -31 0 0 61 -30 0 0 -91 -30 0 0 91 -31 0 0 30 251 0 68 82 0 40 -76 0c-25,0 -47,12 -60,31 -14,-19 -36,-31 -61,-31l-350 0 0 91 -61 0 0 471c0,25 21,46 46,46l351 0c7,35 38,61 75,61 36,0 67,-26 74,-61l351 0c25,0 46,-21 46,-46l0 -471 -61 0zm-152 -213l-91 0 0 -30 91 0 0 30zm-61 31l0 273 -30 0 0 -273 30 0zm48 304l-33 48 -32 -48 65 0zm13 -31l-30 0 0 -273 30 0 0 273zm-46 -425c25,0 46,20 46,45l0 15 -91 0 0 -15c0,-25 20,-45 45,-45zm-592 273l319 0c25,0 45,21 45,46l0 15 -15 0c-25,0 -45,21 -45,46 0,25 20,45 45,45l15 0 0 31 -15 0c-25,0 -45,20 -45,45 0,25 20,46 45,46l15 0 0 30 -15 0c-25,0 -45,21 -45,46 0,25 20,45 45,45l15 0 0 92 -364 0 0 -487zm349 122c-8,0 -15,-7 -15,-15 0,-9 7,-16 15,-16l15 0 31 0 15 0c8,0 15,7 15,16 0,8 -7,15 -15,15l-61 0zm0 121c-8,0 -15,-6 -15,-15 0,-8 7,-15 15,-15l61 0c8,0 15,7 15,15 0,9 -7,15 -15,15l-61 0zm0 122c-8,0 -15,-7 -15,-15 0,-9 7,-15 15,-15l61 0c8,0 15,6 15,15 0,8 -7,15 -15,15l-61 0zm471 167c0,9 -6,15 -15,15l-380 0 0 16c0,25 -20,45 -45,45 -26,0 -46,-20 -46,-45l0 -16 -380 0c-8,0 -15,-6 -15,-15l0 -441 30 0 0 426 821 0 0 -395 -30 0 0 365 -365 0 0 -92 15 0c25,0 46,-20 46,-45 0,-25 -21,-46 -46,-46l-15 0 0 -30 15 0c25,0 46,-21 46,-46 0,-25 -21,-45 -46,-45l-15 0 0 -31 15 0c25,0 46,-20 46,-45 0,-25 -21,-46 -46,-46l-15 0 0 -15c0,-25 20,-46 45,-46l76 0 0 172 76 114 76 -114 0 -172 92 0 0 91 60 0 0 441z"/>
     <rect class="fil2" x="638" y="1045" width="243.207" height="30.4006"/>
     <rect class="fil2" x="638" y="1106" width="243.207" height="30.4006"/>
     <rect class="fil2" x="1094" y="1106" width="243.207" height="30.4006"/>
     <rect class="fil2" x="1094" y="1045" width="243.207" height="30.4006"/>
    </g>
   </g>
  </g>
 </g>
</svg>
