<?xml version="1.0" encoding="UTF-8"?>
<!DOCTYPE svg PUBLIC "-//W3C//DTD SVG 1.1//EN" "http://www.w3.org/Graphics/SVG/1.1/DTD/svg11.dtd">
<!-- Creator: CorelDRAW X8 -->
<svg xmlns="http://www.w3.org/2000/svg" xml:space="preserve" width="135px" height="135px" version="1.1" style="shape-rendering:geometricPrecision; text-rendering:geometricPrecision; image-rendering:optimizeQuality; fill-rule:evenodd; clip-rule:evenodd"
viewBox="0 0 3479 3479"
 xmlns:xlink="http://www.w3.org/1999/xlink">
 <defs>
  <style type="text/css">
   <![CDATA[
    .fil0 {fill:#1e54b2}
    .fil1 {fill:#72B3FD}
    .fil2 {fill:white}
   ]]>
  </style>
 </defs>
 <g id="Layer-13">
  <metadata id="CorelCorpID_0Corel-Layer"/>
  <circle class="fil0" cx="1740" cy="1740" r="1740"/>
 </g>
 <g id="Layer-29">
  <metadata id="CorelCorpID_1Corel-Layer"/>
  <g id="_1685945923072">
   <g>
    <polygon class="fil1" points="1954,1356 1115,1356 1115,1899 1954,1899 1954,1578 2004,1578 2004,1356 "/>
    <path class="fil2" d="M2399 1873l0 357 -99 -50 0 -182 -49 0 0 182 -99 50 0 -357 -50 0 0 437 50 -25 0 108 -1087 0 0 -1358c0,-41 34,-74 75,-74 40,0 74,33 74,74l0 272 938 0 0 173 49 0 0 -173 148 0 0 -272c0,-68 -55,-123 -123,-123l-1086 0c-68,0 -124,55 -124,123l0 1407 1185 0 0 -182 74 -37 173 87 0 -437 -49 0zm-173 -912c41,0 74,33 74,74l0 222 -1037 0 0 -222c0,-28 -9,-53 -25,-74l988 0z"/>
    <path class="fil1" d="M2547 1677c0,-39 -23,-73 -57,-89 13,-35 5,-75 -23,-103 -27,-28 -68,-35 -103,-23 -16,-33 -50,-56 -89,-56 -39,0 -73,23 -89,56 -35,-12 -75,-5 -103,23 -27,28 -35,68 -23,103 -33,16 -56,50 -56,89 0,39 23,73 56,89 -12,35 -4,76 23,103 28,28 68,36 103,23 16,34 50,57 89,57 39,0 73,-23 89,-57 35,13 76,5 103,-23 28,-27 36,-68 23,-103 34,-16 57,-50 57,-89zm-272 148c-82,0 -148,-66 -148,-148 0,-82 66,-148 148,-148 82,0 148,66 148,148 0,82 -66,148 -148,148z"/>
    <g>
     <path class="fil2" d="M2275 1850c-95,0 -173,-78 -173,-173 0,-95 78,-173 173,-173 96,0 173,78 173,173 0,95 -77,173 -173,173zm0 -296c-68,0 -123,55 -123,123 0,68 55,124 123,124 68,0 124,-56 124,-124 0,-68 -56,-123 -124,-123z"/>
    </g>
    <g>
     <path class="fil2" d="M2275 1751c-41,0 -74,-33 -74,-74 0,-41 33,-74 74,-74 41,0 74,33 74,74 0,41 -33,74 -74,74zm0 -99c-13,0 -24,11 -24,25 0,14 11,25 24,25 14,0 25,-11 25,-25 0,-14 -11,-25 -25,-25z"/>
    </g>
    <g>
     <rect class="fil2" x="1115" y="1356" width="49.3751" height="49.3751"/>
    </g>
    <g>
     <rect class="fil2" x="1214" y="1356" width="888.759" height="49.3751"/>
    </g>
    <g>
     <rect class="fil2" x="1115" y="1455" width="888.759" height="49.3751"/>
    </g>
    <g>
     <rect class="fil2" x="1115" y="1554" width="888.759" height="49.3751"/>
    </g>
    <path class="fil1" d="M1979 2344l-790 0c-41,0 -74,-34 -74,-74l0 -198c0,-41 33,-74 74,-74l790 0c41,0 74,33 74,74l0 198c0,40 -33,74 -74,74z"/>
    <g>
     <rect class="fil2" x="1263" y="2097" width="49.3751" height="49.3751"/>
    </g>
    <g>
     <rect class="fil2" x="1263" y="2196" width="49.3751" height="49.3751"/>
    </g>
    <g>
     <rect class="fil2" x="1312" y="2146" width="49.3751" height="49.3751"/>
    </g>
    <g>
     <rect class="fil2" x="1214" y="2146" width="49.3751" height="49.3751"/>
    </g>
    <g>
     <rect class="fil2" x="1461" y="2097" width="49.3751" height="49.3751"/>
    </g>
    <g>
     <rect class="fil2" x="1461" y="2196" width="49.3751" height="49.3751"/>
    </g>
    <g>
     <rect class="fil2" x="1510" y="2146" width="49.3751" height="49.3751"/>
    </g>
    <g>
     <rect class="fil2" x="1411" y="2146" width="49.3751" height="49.3751"/>
    </g>
    <g>
     <rect class="fil2" x="1658" y="2097" width="49.3751" height="49.3751"/>
    </g>
    <g>
     <rect class="fil2" x="1658" y="2196" width="49.3751" height="49.3751"/>
    </g>
    <g>
     <rect class="fil2" x="1707" y="2146" width="49.3751" height="49.3751"/>
    </g>
    <g>
     <rect class="fil2" x="1609" y="2146" width="49.3751" height="49.3751"/>
    </g>
    <g>
     <rect class="fil2" x="1856" y="2097" width="49.3751" height="49.3751"/>
    </g>
    <g>
     <rect class="fil2" x="1856" y="2196" width="49.3751" height="49.3751"/>
    </g>
    <g>
     <rect class="fil2" x="1905" y="2146" width="49.3751" height="49.3751"/>
    </g>
    <g>
     <rect class="fil2" x="1806" y="2146" width="49.3751" height="49.3751"/>
    </g>
    <g>
     <rect class="fil2" x="1115" y="1652" width="839.384" height="49.3751"/>
    </g>
    <g>
     <rect class="fil2" x="1214" y="1751" width="740.632" height="49.3751"/>
    </g>
    <g>
     <rect class="fil2" x="1115" y="1751" width="49.3751" height="49.3751"/>
    </g>
    <g>
     <rect class="fil2" x="1115" y="1850" width="740.632" height="49.3751"/>
    </g>
    <g>
     <rect class="fil2" x="1905" y="1850" width="49.3751" height="49.3751"/>
    </g>
   </g>
  </g>
 </g>
</svg>
