<?xml version="1.0" encoding="UTF-8"?>
<!DOCTYPE svg PUBLIC "-//W3C//DTD SVG 1.1//EN" "http://www.w3.org/Graphics/SVG/1.1/DTD/svg11.dtd">
<!-- Creator: CorelDRAW X8 -->
<svg xmlns="http://www.w3.org/2000/svg" xml:space="preserve" width="135px" height="135px" version="1.1" style="shape-rendering:geometricPrecision; text-rendering:geometricPrecision; image-rendering:optimizeQuality; fill-rule:evenodd; clip-rule:evenodd"
viewBox="0 0 14254 14254"
 xmlns:xlink="http://www.w3.org/1999/xlink">
 <defs>
  <style type="text/css">
   <![CDATA[
    .fil0 {fill:#1e54b2}
    .fil1 {fill:#72B3FD}
    .fil2 {fill:white}
   ]]>
  </style>
 </defs>
 <g id="Layer-14">
  <metadata id="CorelCorpID_0Corel-Layer"/>
  <circle class="fil0" cx="7127" cy="7127" r="7127"/>
 </g>
 <g id="Layer-30">
  <metadata id="CorelCorpID_1Corel-Layer"/>
  <g id="_1685945920352">
   <g>
    <path class="fil1" d="M5944 4448l0 31c0,221 -104,429 -281,562 -122,91 -269,140 -422,140l-330 0 -1 0c-13,-76 -20,-154 -20,-234 0,-164 28,-322 81,-468 60,-175 155,-332 274,-466 102,-114 220,-210 352,-286l2 1c154,144 270,333 324,549 14,57 21,114 21,171z"/>
    <path class="fil1" d="M7344 4010c120,135 215,294 276,469 53,146 81,304 81,468l-127 0c-206,0 -392,-125 -468,-317l-2 -5c-66,-164 -212,-281 -386,-310 -245,-41 -423,-252 -423,-498l0 -275c417,0 791,180 1049,468z"/>
    <path class="fil1" d="M7245 5533l327 0 1 1c-222,482 -711,818 -1278,818 -421,0 -801,-186 -1058,-480l1 -1 408 -153c108,-41 181,-146 181,-261 0,-99 52,-189 136,-239l348 -210c66,-40 143,-61 220,-61 204,0 379,144 419,343 28,141 151,243 295,243z"/>
    <g>
     <rect class="fil2" x="4305" y="7172" width="234" height="234"/>
     <rect class="fil2" x="4773" y="7172" width="234" height="234"/>
     <rect class="fil2" x="5242" y="9397" width="234" height="234"/>
     <rect class="fil2" x="5710" y="9397" width="234" height="234"/>
     <path class="fil2" d="M10512 6235l-1172 0c-64,0 -117,-52 -117,-117 0,-64 53,-117 117,-117l703 0c194,0 351,-157 351,-351 0,-194 -157,-352 -351,-352l-1288 0 0 -819c0,-323 -263,-586 -586,-586l-777 0c-278,-288 -666,-468 -1097,-468 -430,0 -818,180 -1096,468l-777 0c-323,0 -586,263 -586,586l0 2225 -234 0 0 585c0,323 263,586 585,586l4217 0c322,0 585,-263 585,-586l0 -585 -234 0 0 -937 -234 0 0 937 -235 0 0 -2108c0,-129 -105,-234 -234,-234l-352 0c-34,-82 -76,-160 -124,-235l593 0c194,0 352,158 352,352l0 1054 1522 0c65,0 117,52 117,117 0,64 -52,117 -117,117l-703 0c-193,0 -351,158 -351,351 0,194 158,352 351,352l1172 0c64,0 117,52 117,117 0,64 -53,117 -117,117l-586 0c-194,0 -351,157 -351,351l0 1991c0,194 -158,351 -352,351l-937 0c0,-193 -157,-351 -351,-351l-196 0c-54,-158 -134,-307 -239,-439l0 0c-134,-167 -335,-264 -549,-264l-598 0c-715,0 -1348,456 -1574,1134l-12 37 12 37c226,679 858,1135 1574,1135l598 0c215,0 415,-97 549,-264 105,-132 186,-281 240,-439l195 0c194,0 351,-158 351,-351l937 0c323,0 586,-263 586,-586l0 -1991c0,-65 52,-117 117,-117l586 0c193,0 351,-158 351,-351 0,-194 -158,-352 -351,-352zm-6442 -1756c0,-194 158,-352 352,-352l593 0c-48,75 -90,153 -124,235l-352 0c-129,0 -234,105 -234,234l0 2108 -235 0 0 -2225zm4685 2810c0,194 -158,352 -351,352l-4217 0c-193,0 -351,-158 -351,-352l0 -351 1593 0c168,151 384,234 612,234l509 0c228,0 443,-83 612,-234l1593 0 0 351zm-703 -2693l0 2108 -985 0 -35 34c-128,129 -300,200 -482,200l-509 0c-182,0 -354,-71 -483,-200l-34 -34 -985 0 0 -2108 277 0c-27,113 -43,230 -43,351 0,840 683,1523 1522,1523 840,0 1523,-683 1523,-1523 0,-121 -16,-238 -42,-351l276 0zm-1757 1639c-710,0 -1288,-578 -1288,-1288 0,-710 578,-1288 1288,-1288 711,0 1289,578 1289,1288 0,710 -578,1288 -1289,1288zm1022 4041c-90,111 -223,175 -366,175l-70 0 0 -702 -234 0 0 702 -294 0c-601,0 -1134,-375 -1339,-937 205,-562 737,-936 1339,-936l294 0 0 702 234 0 0 -702 70 0c143,0 276,64 366,175 147,185 238,410 260,644l-579 0 0 235 579 0c-22,234 -113,459 -260,644zm735 -644c0,64 -52,117 -117,117l-137 0c13,-77 20,-156 20,-235 0,-78 -7,-157 -20,-234l137 0c65,0 117,53 117,117l0 235z"/>
    </g>
    <path class="fil1" d="M6178 9514l0 0c0,-129 105,-234 235,-234l468 0c129,0 234,105 234,234l0 0c0,130 -105,235 -234,235l-468 0c-130,0 -235,-105 -235,-235z"/>
   </g>
  </g>
 </g>
</svg>
