<?xml version="1.0" encoding="UTF-8"?>
<!DOCTYPE svg PUBLIC "-//W3C//DTD SVG 1.1//EN" "http://www.w3.org/Graphics/SVG/1.1/DTD/svg11.dtd">
<!-- Creator: CorelDRAW X8 -->
<svg xmlns="http://www.w3.org/2000/svg" xml:space="preserve" width="135px" height="135px" version="1.1" style="shape-rendering:geometricPrecision; text-rendering:geometricPrecision; image-rendering:optimizeQuality; fill-rule:evenodd; clip-rule:evenodd"
viewBox="0 0 7231 7231"
 xmlns:xlink="http://www.w3.org/1999/xlink">
 <defs>
  <style type="text/css">
   <![CDATA[
    .fil0 {fill:#1e54b2}
    .fil2 {fill:#72B3FD}
    .fil1 {fill:white}
   ]]>
  </style>
 </defs>
 <g id="Layer-15">
  <metadata id="CorelCorpID_0Corel-Layer"/>
  <circle class="fil0" cx="3616" cy="3616" r="3616"/>
 </g>
 <g id="Layer-32">
  <metadata id="CorelCorpID_1Corel-Layer"/>
  <g id="_1685945913728">
   <g>
    <g>
     <rect class="fil1" x="4422" y="3218" width="124" height="807"/>
     <rect class="fil1" x="3926" y="3218" width="124" height="807"/>
     <polygon class="fil1" points="4546,4831 3926,4831 3926,4272 3802,4272 3802,5203 3926,5203 3926,4955 4546,4955 4546,5203 4670,5203 4670,4272 4546,4272 "/>
     <path class="fil1" d="M5415 2721l-574 0 0 124 574 0 0 124 -636 0 0 124 264 0 0 2110 372 0 0 -2110c68,0 124,-55 124,-124l0 -124c0,-68 -56,-124 -124,-124zm-124 2358l-124 0 0 -1986 124 0 0 1986z"/>
     <path class="fil1" d="M3305 3714l-1365 0 0 -621 1241 0 0 -124 -1365 0 0 -124 1815 0 0 -124 -946 0 0 -62c0,-103 -84,-186 -186,-186l-124 0 0 -538c0,-108 54,-206 146,-263l230 -145c50,-30 107,-47 165,-47l17 0c171,0 310,139 310,310l124 0c0,-239 -194,-434 -434,-434l-17 0c-82,0 -161,23 -230,66l-231 144c-128,80 -204,218 -204,369l0 538 -125 0c-102,0 -186,83 -186,186l0 62 -124 0c-68,0 -124,56 -124,124l0 124c0,69 56,124 124,124l0 1862 138 0 62 248 345 0 62 -248 399 0 63 248 345 0 62 -248 137 0 0 -1862 264 0 0 -124 -388 0 0 745zm-1241 -1055c0,-34 28,-62 62,-62l373 0c34,0 62,28 62,62l0 62 -497 0 0 -62zm200 2420l-151 0 -31 -124 213 0 -31 124zm869 0l-151 0 -32 -124 214 0 -31 124zm-1193 -248l0 -993 1365 0 0 993 -1365 0z"/>
     <rect class="fil1" x="4174" y="3218" width="124" height="807"/>
     <path class="fil1" d="M2499 3590l248 0c103,0 186,-84 186,-186l0 -186 -620 0 0 186c0,102 83,186 186,186zm-62 -248l372 0 0 62c0,34 -28,62 -62,62l-248 0c-35,0 -62,-28 -62,-62l0 -62z"/>
     <rect class="fil1" x="3057" y="4086" width="124" height="496"/>
    </g>
    <g>
     <path class="fil2" d="M4646 3280l-820 0c-79,0 -148,-54 -167,-131l-100 -400c-4,-13 -5,-27 -5,-41 0,-96 77,-173 172,-173l1020 0c95,0 173,77 173,173 0,14 -2,28 -5,41l-100 400c-20,77 -88,131 -168,131z"/>
    </g>
    <g>
     <polygon class="fil2" points="3678,2225 2933,2225 2933,2101 3181,1728 3429,1728 3678,2101 "/>
    </g>
    <g>
     <polygon class="fil2" points="4919,4334 3554,4334 3554,3962 4919,3962 "/>
    </g>
   </g>
  </g>
 </g>
</svg>
