<?xml version="1.0" encoding="UTF-8"?>
<!DOCTYPE svg PUBLIC "-//W3C//DTD SVG 1.1//EN" "http://www.w3.org/Graphics/SVG/1.1/DTD/svg11.dtd">
<!-- Creator: CorelDRAW X8 -->
<svg xmlns="http://www.w3.org/2000/svg" xml:space="preserve" width="135px" height="135px" version="1.1" style="shape-rendering:geometricPrecision; text-rendering:geometricPrecision; image-rendering:optimizeQuality; fill-rule:evenodd; clip-rule:evenodd"
viewBox="0 0 2846 2846"
 xmlns:xlink="http://www.w3.org/1999/xlink">
 <defs>
  <style type="text/css">
   <![CDATA[
    .fil0 {fill:#1841A5}
    .fil1 {fill:#72B3FD}
    .fil2 {fill:white}
   ]]>
  </style>
 </defs>
 <g id="Layer-16">
  <metadata id="CorelCorpID_0Corel-Layer"/>
  <circle class="fil0" cx="1423" cy="1423" r="1423"/>
 </g>
 <g id="Layer-31">
  <metadata id="CorelCorpID_1Corel-Layer"/>
  <g id="_1685945916960">
   <g>
    <polygon class="fil1" points="2127,986 1892,986 1892,1220 2127,1220 2056,1103 "/>
    <g>
     <path class="fil2" d="M1517 741l-47 0 0 -107c0,-13 -11,-24 -24,-24l-94 0c-13,0 -23,11 -23,24l0 107 -47 0 0 -107c0,-39 32,-71 70,-71l94 0c39,0 71,32 71,71l0 107z"/>
    </g>
    <path class="fil2" d="M1811 668c-46,-46 -120,-46 -166,0l-17 17 67 66 -63 63 33 33 63 -63 66 67 17 -17c22,-22 34,-52 34,-83 0,-31 -12,-61 -34,-83zm-20 113l-94 -94c27,-12 59,-7 80,14 14,14 21,31 21,50 0,11 -2,21 -7,30z"/>
    <path class="fil2" d="M1170 685l-16 -17c-46,-46 -120,-46 -166,0 -22,22 -34,52 -34,83 0,31 12,61 34,83l16 17 67 -67 63 63 33 -33 -63 -63 66 -66zm-170 66c0,-19 8,-36 21,-50 14,-13 32,-20 50,-20 10,0 21,2 30,6l-94 94c-4,-9 -7,-19 -7,-30z"/>
    <g>
     <path class="fil2" d="M1751 1736l-704 0c-38,0 -70,-31 -70,-70l0 -375c0,-39 32,-71 70,-71l41 0 0 47 -41 0c-13,0 -23,11 -23,24l0 375c0,13 10,23 23,23l704 0c13,0 24,-10 24,-23l0 -375c0,-13 -11,-24 -24,-24l-40 0 0 -47 40 0c39,0 71,32 71,71l0 375c0,39 -32,70 -71,70z"/>
    </g>
    <g>
     <path class="fil2" d="M930 1900l-47 0 0 -891c0,-65 53,-117 117,-117l88 0 0 47 -88 0c-38,0 -70,31 -70,70l0 891z"/>
    </g>
    <path class="fil2" d="M1798 892l-87 0 0 47 87 0c39,0 70,31 70,70l0 774 -868 0c-64,0 -117,53 -117,117 0,65 53,118 117,118l892 0 0 -47c-39,0 -70,-32 -70,-71 0,-38 31,-70 70,-70l23 0 0 -821c0,-65 -52,-117 -117,-117zm1 1079l-799 0c-38,0 -70,-32 -70,-71 0,-38 32,-70 70,-70l799 0c-15,20 -24,44 -24,70 0,27 9,51 24,71z"/>
    <g>
     <path class="fil1" d="M1399 1455c-207,0 -375,-169 -375,-376 0,-207 168,-375 375,-375 207,0 376,168 376,375 0,207 -169,376 -376,376zm0 -634c-142,0 -258,116 -258,258 0,143 116,258 258,258 143,0 258,-115 258,-258 0,-142 -115,-258 -258,-258z"/>
    </g>
    <g>
     <path class="fil2" d="M1399 798c-155,0 -281,126 -281,281 0,156 126,282 281,282 156,0 282,-126 282,-282 0,-155 -126,-281 -282,-281zm234 305c-5,47 -24,90 -52,125l-32 -32 -34 33 33 32c-35,28 -78,47 -125,52l0 -46 -47 0 0 46c-47,-5 -90,-24 -125,-52l32 -32 -33 -33 -32 32c-29,-35 -47,-78 -52,-125l46 0 0 -47 -46 0c5,-47 23,-90 52,-125l32 32 33 -33 -32 -32c35,-29 78,-47 125,-52l0 46 47 0 0 -46c47,5 90,23 125,52l-33 32 34 33 32 -32c28,35 47,78 52,125l-46 0 0 47 46 0z"/>
     <polygon class="fil2" points="1376,1074 1331,1163 1373,1184 1423,1085 1423,939 1376,939 "/>
    </g>
    <g>
     <rect class="fil2" x="1376" y="1549" width="46.9177" height="46.9177"/>
    </g>
    <g>
     <rect class="fil2" x="1470" y="1549" width="46.9177" height="46.9177"/>
    </g>
    <g>
     <rect class="fil2" x="1282" y="1549" width="46.9177" height="46.9177"/>
    </g>
   </g>
  </g>
 </g>
</svg>
