<?xml version="1.0" encoding="UTF-8"?>
<!DOCTYPE svg PUBLIC "-//W3C//DTD SVG 1.1//EN" "http://www.w3.org/Graphics/SVG/1.1/DTD/svg11.dtd">
<!-- Creator: CorelDRAW X8 -->
<svg xmlns="http://www.w3.org/2000/svg" xml:space="preserve" width="72px" height="72px" version="1.1" style="shape-rendering:geometricPrecision; text-rendering:geometricPrecision; image-rendering:optimizeQuality; fill-rule:evenodd; clip-rule:evenodd"
viewBox="0 0 636 636"
 xmlns:xlink="http://www.w3.org/1999/xlink">
 <defs>
  <style type="text/css">
   <![CDATA[
    .fil0 {fill:#72B3FD}
    .fil1 {fill:white}
   ]]>
  </style>
 </defs>
 <g id="Layer-146">
  <metadata id="CorelCorpID_0Corel-Layer"/>
  <g id="_1685945945952">
   <g>
    <polygon class="fil0" points="513,256 513,420 492,420 492,461 513,461 554,461 554,256 "/>
    <polygon class="fil0" points="123,420 123,338 82,338 82,461 123,461 144,461 144,420 "/>
    <path class="fil0" d="M154 297c0,-25 6,-50 16,-71l-88 0 0 82 72 0c0,-4 0,-7 0,-11z"/>
    <path class="fil0" d="M418 167c43,34 69,88 63,148 -5,43 -26,81 -58,108l-12 -12c-14,-14 -21,-33 -21,-52 0,-20 7,-39 21,-53l12 -11c5,-5 8,-12 8,-19l0 -9c0,-12 -9,-23 -21,-26 -12,-3 -20,-14 -20,-26l0 -44c10,-1 19,-2 28,-4z"/>
    <path class="fil0" d="M318 461c-84,0 -153,-62 -163,-143l0 0 30 0c34,0 67,-7 97,-20 16,-7 34,-5 47,6 12,8 20,23 20,38l0 10c0,35 7,69 21,101l0 0c-11,3 -22,6 -34,7 -6,1 -12,1 -18,1z"/>
    <path class="fil0" d="M348 174c0,40 -33,72 -73,72 -12,0 -23,6 -29,15 -6,10 -17,16 -29,16l-20 0c-15,0 -28,-5 -40,-12 2,-10 5,-20 9,-29 6,-15 14,-29 24,-41 8,-10 17,-20 28,-28 26,4 60,7 100,7 10,0 21,0 30,0z"/>
    <g>
     <path class="fil1" d="M595 246l0 -61 -43 0c-2,-13 -8,-31 -19,-38l0 -65c11,0 21,-9 21,-20l0 -41c0,-12 -10,-21 -21,-21l-430 0c-12,0 -21,9 -21,21l0 41c0,11 9,20 21,20l41 0 0 79 7 3c1,0 16,5 44,10 -4,3 -7,7 -10,11l-144 0 0 61 -41 0 0 318c0,17 14,31 31,31l237 0c4,23 25,41 50,41 25,0 45,-18 50,-41l237 0c17,0 31,-14 31,-31l0 -318 -41 0zm-62 -51c0,5 -5,10 -10,10 -6,0 -10,-5 -10,-10 0,-9 5,-25 10,-30 4,5 10,21 10,30zm-430 -174l430 0 0 41 -430 0 0 -41zm61 61l308 0 0 64c-19,5 -74,18 -154,18 -80,0 -135,-13 -154,-18l0 -64zm154 103c38,0 71,-3 97,-7 40,33 61,83 56,136 -8,71 -65,128 -136,136 -44,5 -87,-9 -120,-38 -32,-29 -51,-71 -51,-115 0,-46 21,-89 57,-119 26,4 58,7 97,7zm-256 20l108 0c-17,27 -26,59 -26,92 0,50 21,97 58,130 29,27 66,42 106,44l0 62 -246 0 0 -328zm553 359c0,5 -5,10 -10,10l-256 0 0 10c0,17 -14,31 -31,31 -17,0 -31,-14 -31,-31l0 -10 -256 0c-6,0 -10,-5 -10,-10l0 -297 20 0 0 287 554 0 0 -267 -21 0 0 246 -246 0 0 -62c3,0 6,0 10,-1 80,-8 145,-73 153,-154 6,-53 -13,-105 -50,-142 27,-5 43,-10 44,-11l7 -2 0 -79 21 0 0 65c-14,10 -21,38 -21,48 0,17 14,31 31,31 13,0 24,-9 29,-21l22 0 0 62 41 0 0 297z"/>
     <rect class="fil1" x="215" y="349" width="20.5024" height="20.5024"/>
     <rect class="fil1" x="287" y="328" width="20.5024" height="20.5024"/>
     <rect class="fil1" x="297" y="400" width="20.5024" height="20.5024"/>
     <rect class="fil1" x="82" y="451" width="123.015" height="20.5024"/>
     <rect class="fil1" x="82" y="410" width="61.5075" height="20.5024"/>
     <rect class="fil1" x="82" y="369" width="41.0052" height="20.5024"/>
     <rect class="fil1" x="82" y="328" width="41.0052" height="20.5024"/>
     <rect class="fil1" x="431" y="451" width="123.015" height="20.5024"/>
     <rect class="fil1" x="492" y="410" width="61.5075" height="20.5024"/>
     <rect class="fil1" x="513" y="369" width="41.0052" height="20.5024"/>
     <rect class="fil1" x="513" y="328" width="41.0052" height="20.5024"/>
     <rect class="fil1" x="513" y="287" width="41.0052" height="20.5024"/>
     <rect class="fil1" x="513" y="246" width="41.0052" height="20.5024"/>
    </g>
   </g>
  </g>
 </g>
</svg>
