<?xml version="1.0" encoding="UTF-8"?>
<!DOCTYPE svg PUBLIC "-//W3C//DTD SVG 1.1//EN" "http://www.w3.org/Graphics/SVG/1.1/DTD/svg11.dtd">
<!-- Creator: CorelDRAW X8 -->
<svg xmlns="http://www.w3.org/2000/svg" xml:space="preserve" width="77px" height="77px" version="1.1" style="shape-rendering:geometricPrecision; text-rendering:geometricPrecision; image-rendering:optimizeQuality; fill-rule:evenodd; clip-rule:evenodd"
viewBox="0 0 1916 1916"
 xmlns:xlink="http://www.w3.org/1999/xlink">
 <defs>
  <style type="text/css">
   <![CDATA[
    .fil1 {fill:#72B3FD}
    .fil0 {fill:white}
   ]]>
  </style>
 </defs>
 <g id="Layer-147">
  <metadata id="CorelCorpID_0Corel-Layer"/>
  <g id="_1685945942144">
   <g>
    <g>
     <path class="fil0" d="M1762 0l-804 0c-85,0 -154,69 -154,155l0 72 61 0 0 -72c0,-52 42,-93 93,-93l804 0c51,0 92,41 92,93l0 401 -772 0 0 62 767 0c-13,36 -47,62 -87,62l-680 0 0 62 93 0 0 123 -62 0 0 62 556 0 0 -62 -124 0 0 -123 217 0c85,0 154,-70 154,-155l0 -432c0,-86 -69,-155 -154,-155zm-278 865l-248 0 0 -123 248 0 0 123z"/>
     <path class="fil0" d="M1607 314l0 -5c0,-51 -41,-93 -93,-93 -51,0 -92,42 -92,93l62 0c0,-17 13,-31 30,-31 18,0 31,14 31,31l0 5c0,9 -3,16 -9,22l-83 84 0 75 154 0 0 -62 -80 0 53 -53c18,-18 27,-41 27,-66z"/>
     <polygon class="fil0" points="1638,124 1370,124 1258,403 1168,290 1119,328 1276,524 1412,185 1638,185 "/>
    </g>
    <path class="fil1" d="M124 1391c0,24 5,45 15,64 9,-4 17,-7 26,-10l299 -85 0 -93 0 0c-68,-50 -114,-128 -122,-216l-2 0c-68,0 -124,-55 -124,-124 0,-68 56,-123 124,-123l0 -26c0,-59 37,-110 93,-129 101,61 217,93 334,93l191 0 0 62c68,0 124,55 124,123 0,69 -56,124 -124,124l-1 0c-9,88 -55,166 -123,216l1 0 0 93 298 85c9,3 18,6 26,10 10,-19 15,-40 15,-64 0,-50 -20,-76 -37,-97 -14,-17 -24,-30 -24,-58 0,-28 9,-40 24,-58 17,-21 38,-47 38,-96 0,-50 -21,-76 -38,-97 -15,-18 -24,-30 -24,-58l0 -309c0,-255 -208,-463 -464,-463 -256,0 -464,208 -464,463l0 309c0,28 -9,40 -24,58 -16,21 -37,47 -37,97 0,49 21,75 37,96 15,18 24,30 24,58 0,28 -10,41 -24,58 -16,21 -37,47 -37,97z"/>
    <g>
     <path class="fil0" d="M649 1205c68,0 124,-55 124,-123l-62 0c0,34 -28,62 -62,62 -34,0 -62,-28 -62,-62l-62 0c0,68 56,123 124,123z"/>
     <path class="fil0" d="M1141 1415l-276 -78 0 -55c61,-50 104,-122 119,-203 73,-12 129,-75 129,-152 0,-74 -54,-137 -124,-151l0 -127 -62 0 0 62 -160 0c-112,0 -222,-31 -318,-88l-13 -8 -13 5c-68,22 -113,85 -114,156 -70,14 -124,77 -124,151 0,76 56,139 130,152 14,81 57,153 118,203l0 55 -276 78c-92,27 -157,112 -157,208l0 293 340 0 216 0 186 0 216 0 340 0 0 -293c0,-96 -64,-181 -157,-208zm-214 -457l-185 0 0 -93 185 0 0 93zm124 -31c0,40 -26,74 -62,87l0 -174c36,13 62,47 62,87zm-621 -244c103,59 219,90 337,90l160 0 0 31 -185 0c-34,0 -62,27 -62,61l0 31 -62 0 0 -31c0,-34 -28,-61 -62,-61l-185 0 0 -26c0,-41 23,-77 59,-95zm-59 182l185 0 0 93 -185 0 0 -93zm-124 62c0,-40 26,-74 62,-87l0 174c-36,-13 -62,-47 -62,-87zm124 93l185 0c34,0 62,-28 62,-62l62 0c0,34 28,62 62,62l185 0c0,153 -125,278 -278,278 -153,0 -278,-125 -278,-278zm278 340c56,0 108,-14 155,-38l0 23 -155 129 -154 -129 0 -23c46,24 98,38 154,38zm-309 494l-31 0 0 -61 93 0c40,0 74,25 87,61l-149 0zm278 0l-65 0c-14,-70 -77,-123 -151,-123l-31 0 0 -124 154 0c52,0 93,42 93,93l0 154zm62 0l0 -154c0,-51 42,-93 93,-93l154 0 0 124 -31 0c-74,0 -137,53 -151,123l-65 0zm129 0c13,-36 47,-61 87,-61l93 0 0 61 -31 0 -149 0zm427 0l-185 0 0 -61 124 0 0 -62 -62 0 0 -155 -62 0 0 155 -62 0 0 -186 -216 0c-51,0 -96,25 -124,63 -28,-38 -73,-63 -124,-63l-216 0 0 186 -62 0 0 -155 -62 0 0 155 -61 0 0 62 123 0 0 61 -185 0 0 -231c0,-68 46,-129 112,-148l282 -81 193 161 193 -161 282 81c66,19 112,80 112,148l0 231z"/>
    </g>
   </g>
  </g>
 </g>
</svg>
