<svg xmlns="http://www.w3.org/2000/svg" xml:space="preserve" width="48px" height="48px" version="1.1" style="shape-rendering:geometricPrecision; text-rendering:geometricPrecision; image-rendering:optimizeQuality; fill-rule:evenodd; clip-rule:evenodd"
viewBox="0 0 265 266"
 xmlns:xlink="http://www.w3.org/1999/xlink">
 <defs>
  <style type="text/css">
   <![CDATA[
    .fil2 {fill:white}
   ]]>
  </style>
 </defs>
 <g id="Слой_x0020_1">
  <metadata id="CorelCorpID_0Corel-Layer"/>
  <path class="fil2" d="M132 0c-69,0 -126,53 -132,121l108 0 0 -36c0,-5 3,-10 8,-12 4,-1 9,0 13,3l48 48c5,5 5,13 0,17l-48 49c-4,3 -9,4 -13,2 -5,-1 -8,-6 -8,-11l0 -36 -108 0c6,68 63,121 132,121 74,0 133,-60 133,-133 0,-73 -59,-133 -133,-133zm0 0z"/>
 </g>
</svg>
