<?xml version="1.0" encoding="UTF-8"?>
<!DOCTYPE svg PUBLIC "-//W3C//DTD SVG 1.1//EN" "http://www.w3.org/Graphics/SVG/1.1/DTD/svg11.dtd">
<!-- Creator: CorelDRAW X8 -->
<svg xmlns="http://www.w3.org/2000/svg" xml:space="preserve" width="500px" height="65px" version="1.1" style="shape-rendering:geometricPrecision; text-rendering:geometricPrecision; image-rendering:optimizeQuality; fill-rule:evenodd; clip-rule:evenodd"
viewBox="0 0 35257 4561"
 xmlns:xlink="http://www.w3.org/1999/xlink">
 <defs>
  <style type="text/css">
   <![CDATA[
    .fil3 {fill:#FEFEFE;fill-rule:nonzero}
    .fil5 {fill:#C7D8ED;fill-rule:nonzero}
    .fil6 {fill:#92B4DF;fill-rule:nonzero}
    .fil2 {fill:#7CB1E3;fill-rule:nonzero}
    .fil4 {fill:#649CD7;fill-rule:nonzero}
    .fil7 {fill:#6691CE;fill-rule:nonzero}
    .fil1 {fill:#98BDEA;fill-rule:nonzero}
    .fil0 {fill:white;fill-rule:nonzero}
   ]]>
  </style>
 </defs>
 <g id="Слой_x0020_1">
  <metadata id="CorelCorpID_0Corel-Layer"/>
  <path class="fil0" d="M12328 146l257 0 0 689c0,109 3,180 10,212 11,53 37,94 78,126 41,31 98,47 170,47 73,0 128,-15 165,-45 37,-30 59,-66 67,-110 7,-43 11,-115 11,-215l0 -704 257 0 0 668c0,153 -7,260 -21,323 -14,63 -40,117 -77,160 -37,44 -87,78 -150,104 -62,25 -144,39 -245,39 -121,0 -213,-15 -276,-43 -63,-27 -112,-64 -148,-109 -37,-45 -61,-92 -73,-141 -16,-73 -25,-180 -25,-323l0 -678zm2122 1272l-244 0 0 -471c0,-99 -5,-163 -15,-193 -11,-29 -28,-51 -51,-68 -23,-16 -52,-24 -85,-24 -42,0 -80,12 -113,35 -34,23 -57,53 -69,92 -13,38 -19,108 -19,211l0 418 -244 0 0 -921 226 0 0 135c81,-105 182,-157 304,-157 54,0 103,10 148,30 45,19 78,44 101,74 23,30 39,64 48,102 8,38 13,93 13,164l0 573zm247 -1046l0 -226 244 0 0 226 -244 0zm0 1046l0 -921 244 0 0 921 -244 0zm747 0l-371 -921 256 0 174 470 50 157c13,-40 21,-67 25,-79 8,-26 17,-52 26,-78l175 -470 251 0 -366 921 -220 0zm1269 -293l243 41c-31,89 -80,156 -147,203 -68,46 -153,70 -254,70 -160,0 -278,-53 -355,-157 -61,-84 -92,-190 -92,-318 0,-153 40,-273 120,-359 80,-86 181,-130 303,-130 137,0 245,46 325,136 79,91 117,230 113,417l-611 0c2,72 21,128 59,168 38,41 85,61 141,61 38,0 70,-11 96,-32 26,-20 46,-54 59,-100zm14 -247c-1,-71 -20,-124 -54,-161 -35,-37 -77,-55 -127,-55 -53,0 -98,19 -132,58 -35,39 -52,91 -51,158l364 0zm675 540l-244 0 0 -921 226 0 0 130c39,-61 74,-103 105,-122 30,-20 66,-30 105,-30 55,0 109,16 161,47l-76 212c-41,-26 -79,-40 -115,-40 -34,0 -62,10 -86,28 -24,19 -42,53 -56,102 -13,49 -20,153 -20,309l0 285zm372 -263l244 -37c11,47 32,83 64,107 31,25 76,38 133,38 63,0 111,-12 143,-35 21,-16 32,-38 32,-65 0,-19 -6,-34 -18,-46 -12,-12 -39,-22 -81,-32 -197,-44 -321,-83 -374,-119 -73,-50 -109,-119 -109,-208 0,-80 31,-147 94,-201 63,-54 161,-82 293,-82 126,0 220,21 282,62 61,41 103,102 126,182l-230 43c-9,-36 -28,-63 -56,-83 -27,-19 -67,-28 -117,-28 -64,0 -110,9 -138,27 -19,12 -28,29 -28,49 0,18 8,32 24,45 22,16 98,38 228,68 130,30 221,66 272,108 51,44 76,104 76,182 0,84 -35,157 -105,217 -71,61 -175,92 -314,92 -125,0 -225,-26 -298,-77 -73,-51 -120,-120 -143,-207zm1074 -783l0 -226 244 0 0 226 -244 0zm0 1046l0 -921 244 0 0 921 -244 0zm916 -921l0 194 -166 0 0 371c0,75 1,119 5,132 3,12 10,22 21,30 11,9 25,13 42,13 22,0 54,-8 97,-24l21 189c-57,24 -120,37 -193,37 -43,0 -83,-8 -118,-23 -36,-14 -61,-33 -78,-57 -17,-23 -28,-55 -34,-95 -5,-28 -8,-85 -8,-171l0 -402 -112 0 0 -194 112 0 0 -184 245 -142 0 326 166 0zm54 0l260 0 220 653 215 -653 253 0 -326 886 -58 161c-21,54 -41,95 -61,123 -19,28 -41,52 -67,69 -25,18 -56,32 -92,41 -37,10 -79,15 -125,15 -47,0 -93,-5 -138,-15l-22 -191c38,8 73,12 103,12 57,0 99,-17 126,-50 27,-34 48,-76 63,-128l-351 -923zm1491 0l135 0 0 -70c0,-78 8,-135 25,-174 17,-38 47,-69 91,-93 45,-24 100,-36 168,-36 69,0 137,11 204,32l-33 169c-39,-9 -76,-13 -112,-13 -35,0 -61,8 -76,24 -15,17 -23,48 -23,95l0 66 182 0 0 191 -182 0 0 730 -244 0 0 -730 -135 0 0 -191zm642 447c0,-81 20,-159 60,-235 40,-76 97,-134 170,-174 73,-39 154,-60 245,-60 139,0 254,46 343,136 89,91 133,205 133,343 0,140 -45,255 -135,347 -90,92 -203,138 -339,138 -85,0 -166,-20 -242,-58 -77,-38 -135,-94 -175,-168 -40,-73 -60,-163 -60,-269zm250 13c0,91 22,161 65,210 44,49 97,73 161,73 64,0 117,-24 160,-73 43,-49 64,-119 64,-211 0,-91 -21,-160 -64,-209 -43,-48 -96,-73 -160,-73 -64,0 -117,25 -161,73 -43,49 -65,119 -65,210zm1126 461l-244 0 0 -921 226 0 0 130c39,-61 74,-103 105,-122 31,-20 66,-30 105,-30 56,0 109,16 161,47l-76 212c-41,-26 -79,-40 -114,-40 -34,0 -63,10 -87,28 -23,19 -42,53 -55,102 -14,49 -21,153 -21,309l0 285zm954 -1272l509 0c101,0 176,4 225,13 49,8 94,25 133,52 39,27 72,62 98,106 25,45 39,94 39,149 0,60 -17,114 -49,164 -32,50 -75,87 -130,112 77,23 137,61 179,115 41,55 62,119 62,192 0,58 -14,114 -40,169 -27,55 -64,98 -111,131 -46,33 -104,53 -172,60 -43,5 -146,8 -310,9l-433 0 0 -1272zm257 211l0 295 168 0c100,0 162,-2 187,-5 44,-5 79,-20 104,-45 25,-25 38,-59 38,-99 0,-40 -11,-72 -33,-97 -22,-24 -54,-39 -97,-44 -26,-3 -99,-5 -219,-5l-148 0zm0 506l0 341 238 0c92,0 151,-3 176,-8 38,-7 70,-24 94,-51 23,-27 36,-63 36,-108 0,-38 -10,-70 -28,-97 -19,-27 -46,-46 -81,-59 -35,-12 -111,-18 -228,-18l-207 0zm1631 555l0 -138c-34,49 -78,88 -132,116 -55,28 -113,43 -174,43 -62,0 -117,-14 -166,-41 -49,-27 -85,-66 -107,-115 -22,-48 -33,-116 -33,-204l0 -582 244 0 0 423c0,129 4,209 13,238 9,29 26,52 49,70 24,17 54,25 91,25 41,0 79,-11 111,-34 33,-23 56,-51 68,-85 12,-34 19,-117 19,-249l0 -388 243 0 0 921 -226 0zm393 -263l244 -37c11,47 32,83 64,107 32,25 76,38 133,38 63,0 111,-12 143,-35 22,-16 32,-38 32,-65 0,-19 -6,-34 -17,-46 -13,-12 -40,-22 -82,-32 -196,-44 -321,-83 -374,-119 -73,-50 -109,-119 -109,-208 0,-80 32,-147 95,-201 62,-54 160,-82 293,-82 126,0 219,21 281,62 61,41 104,102 126,182l-229 43c-10,-36 -29,-63 -56,-83 -28,-19 -67,-28 -118,-28 -64,0 -110,9 -138,27 -18,12 -28,29 -28,49 0,18 8,32 25,45 21,16 97,38 227,68 130,30 221,66 272,108 51,44 77,104 77,182 0,84 -36,157 -106,217 -71,61 -175,92 -314,92 -125,0 -224,-26 -297,-77 -73,-51 -121,-120 -144,-207zm1074 -783l0 -226 244 0 0 226 -244 0zm0 1046l0 -921 244 0 0 921 -244 0zm1332 0l-244 0 0 -471c0,-99 -5,-163 -15,-193 -11,-29 -28,-51 -51,-68 -23,-16 -52,-24 -85,-24 -42,0 -79,12 -113,35 -34,23 -57,53 -69,92 -13,38 -19,108 -19,211l0 418 -244 0 0 -921 226 0 0 135c81,-105 182,-157 304,-157 54,0 103,10 148,30 45,19 78,44 101,74 23,30 39,64 48,102 9,38 13,93 13,164l0 573zm781 -293l243 41c-31,89 -80,156 -147,203 -68,46 -152,70 -254,70 -160,0 -278,-53 -355,-157 -61,-84 -92,-190 -92,-318 0,-153 40,-273 120,-359 80,-86 181,-130 303,-130 137,0 245,46 324,136 80,91 118,230 114,417l-611 0c2,72 21,128 59,168 38,41 85,61 141,61 38,0 70,-11 97,-32 25,-20 45,-54 58,-100zm14 -247c-1,-71 -20,-124 -54,-161 -35,-37 -77,-55 -127,-55 -53,0 -98,19 -132,58 -35,39 -52,91 -51,158l364 0zm355 277l244 -37c11,47 32,83 64,107 32,25 77,38 134,38 62,0 110,-12 142,-35 22,-16 32,-38 32,-65 0,-19 -6,-34 -17,-46 -12,-12 -40,-22 -82,-32 -196,-44 -321,-83 -374,-119 -73,-50 -109,-119 -109,-208 0,-80 32,-147 95,-201 63,-54 160,-82 293,-82 126,0 219,21 281,62 61,41 104,102 126,182l-229 43c-10,-36 -29,-63 -56,-83 -28,-19 -67,-28 -118,-28 -64,0 -110,9 -138,27 -18,12 -28,29 -28,49 0,18 8,32 25,45 21,16 97,38 228,68 130,30 220,66 272,108 50,44 76,104 76,182 0,84 -36,157 -106,217 -71,61 -175,92 -313,92 -126,0 -225,-26 -298,-77 -73,-51 -121,-120 -144,-207zm989 0l244 -37c10,47 32,83 63,107 32,25 77,38 134,38 63,0 111,-12 142,-35 22,-16 33,-38 33,-65 0,-19 -6,-34 -18,-46 -12,-12 -39,-22 -82,-32 -196,-44 -320,-83 -373,-119 -73,-50 -110,-119 -110,-208 0,-80 32,-147 95,-201 63,-54 161,-82 293,-82 126,0 220,21 281,62 62,41 104,102 127,182l-230 43c-9,-36 -28,-63 -56,-83 -28,-19 -67,-28 -118,-28 -64,0 -110,9 -137,27 -19,12 -29,29 -29,49 0,18 9,32 25,45 22,16 98,38 228,68 130,30 221,66 272,108 51,44 76,104 76,182 0,84 -35,157 -106,217 -70,61 -175,92 -313,92 -126,0 -225,-26 -298,-77 -73,-51 -121,-120 -143,-207zm1581 -1009l252 0 501 840 0 -840 243 0 0 1272 -263 0 -492 -818 0 818 -241 0 0 -1272zm1077 584c0,-109 32,-195 97,-259 65,-64 147,-95 246,-95 101,0 183,34 248,102 65,69 97,155 97,258 0,65 -13,122 -39,173 -26,51 -63,93 -111,127 -48,33 -111,50 -188,50 -109,0 -194,-34 -256,-103 -63,-69 -94,-153 -94,-253zm236 22c0,55 9,96 27,124 18,28 45,41 81,41 38,0 65,-17 84,-51 19,-34 28,-85 28,-153 0,-57 -9,-100 -26,-128 -17,-29 -43,-43 -76,-43 -39,0 -68,18 -88,53 -20,35 -30,87 -30,157zm-205 418l621 0 0 192 -621 0 0 -192zm1431 248l-243 0 0 -919c-90,83 -194,145 -315,185l0 -222c64,-20 133,-60 207,-118 75,-58 126,-126 154,-204l197 0 0 1278z"/>
  <path class="fil1" d="M12581 3187c-32,0 -60,-4 -85,-13 -26,-9 -44,-16 -56,-24l0 -233c13,7 29,14 48,19 19,6 43,9 71,9 87,0 139,-36 158,-109l-526 -984 324 0 356 683 266 -683 302 0 -410 963c-30,67 -59,124 -89,171 -30,47 -63,86 -99,115 -37,30 -76,52 -118,66 -42,13 -90,20 -142,20zm907 -973l260 0 0 345 370 0 0 -345 260 0 0 949 -260 0 0 -399 -370 0 0 399 -260 0 0 -949zm1089 0l249 0 0 643 359 -643 295 0 0 949 -250 0 0 -643 -358 643 -295 0 0 -949zm1109 0l545 0c42,0 81,4 118,13 37,10 69,24 97,42 27,20 49,44 65,75 16,31 23,67 23,109 0,46 -11,86 -35,120 -23,34 -54,59 -93,76 49,13 90,39 123,76 33,37 50,90 50,156 0,46 -9,87 -25,121 -17,35 -39,65 -69,88 -29,24 -64,43 -103,55 -39,12 -80,18 -125,18l-571 0 0 -949zm450 780c22,0 43,-1 64,-5 21,-2 39,-8 55,-17 16,-9 29,-21 39,-38 10,-16 15,-38 15,-64 0,-27 -5,-50 -16,-67 -10,-17 -24,-30 -41,-39 -17,-8 -37,-14 -59,-17 -22,-3 -44,-4 -68,-4l-181 0 0 251 192 0zm-20 -398c20,0 39,-1 57,-4 18,-2 34,-8 50,-15 14,-8 26,-20 34,-34 9,-14 13,-33 13,-58 0,-23 -4,-42 -13,-56 -8,-14 -19,-24 -33,-32 -14,-7 -31,-11 -50,-14 -19,-3 -38,-4 -58,-4l-172 0 0 217 172 0zm1069 591c-75,0 -142,-12 -202,-36 -60,-24 -111,-57 -152,-102 -42,-44 -74,-97 -97,-158 -23,-61 -34,-128 -34,-201 0,-72 11,-138 35,-199 23,-61 56,-114 99,-159 43,-44 94,-80 154,-105 59,-26 125,-39 197,-39 76,0 143,14 201,42 58,29 107,66 145,113 39,48 68,102 88,164 19,63 29,128 29,195 0,9 0,17 0,25 0,8 -1,16 -2,25l-685 0c3,84 25,145 64,183 39,38 95,58 169,58 52,0 98,-14 136,-40 38,-27 61,-54 69,-83l230 0c-36,114 -93,195 -169,244 -76,49 -167,73 -275,73zm200 -601c-12,-66 -34,-116 -65,-150 -31,-34 -79,-52 -142,-52 -43,0 -78,7 -105,21 -27,14 -49,32 -65,53 -17,21 -28,43 -35,66 -7,23 -11,44 -12,62l424 0zm415 -372l248 0 0 121 4 0c32,-51 72,-88 121,-112 49,-23 103,-35 161,-35 75,0 139,14 194,42 53,29 98,66 133,112 36,47 62,101 80,163 17,62 25,126 25,193 0,64 -8,125 -25,184 -18,59 -44,111 -79,156 -34,46 -78,82 -130,109 -52,27 -113,40 -183,40 -59,0 -113,-12 -162,-36 -50,-24 -90,-59 -122,-105l-4 0 0 450 -261 0 0 -1282zm479 779c43,0 79,-9 108,-27 29,-17 52,-39 70,-67 17,-27 30,-59 37,-95 8,-36 11,-74 11,-113 0,-38 -4,-75 -12,-112 -8,-37 -21,-70 -39,-98 -19,-29 -42,-52 -71,-70 -28,-18 -64,-27 -105,-27 -43,0 -79,9 -108,27 -29,18 -52,41 -70,69 -17,28 -30,61 -37,98 -8,38 -11,75 -11,113 0,39 4,77 12,113 8,36 21,68 38,95 18,28 41,50 70,67 29,18 65,27 107,27zm1093 194c-72,0 -137,-12 -196,-36 -59,-24 -110,-57 -151,-100 -42,-43 -74,-94 -98,-153 -23,-60 -34,-125 -34,-196 0,-73 10,-142 32,-205 21,-63 53,-117 95,-163 41,-46 92,-82 152,-107 59,-26 128,-39 205,-39 57,0 111,8 163,22 52,15 99,37 140,67 41,30 74,67 100,113 25,45 40,98 44,158l-256 0c-17,-109 -81,-164 -192,-164 -42,0 -77,10 -105,29 -28,19 -51,44 -69,74 -18,29 -30,62 -38,99 -7,37 -11,73 -11,107 0,34 4,69 11,105 8,35 20,68 36,96 17,29 39,53 67,71 28,18 63,28 103,28 62,0 110,-18 144,-53 34,-35 55,-82 64,-141l251 0c-17,127 -66,223 -147,289 -80,66 -184,99 -310,99zm604 -973l250 0 0 643 358 -643 296 0 0 949 -250 0 0 -643 -359 643 -295 0 0 -949zm1334 197l-313 0 0 -197 886 0 0 197 -313 0 0 752 -260 0 0 -752zm1129 776c-75,0 -142,-12 -202,-36 -60,-24 -111,-57 -152,-102 -42,-44 -74,-97 -97,-158 -23,-61 -34,-128 -34,-201 0,-72 11,-138 35,-199 23,-61 56,-114 99,-159 43,-44 94,-80 154,-105 59,-26 125,-39 197,-39 76,0 143,14 201,42 58,29 107,66 145,113 39,48 68,102 88,164 19,63 29,128 29,195 0,9 0,17 0,25 0,8 -1,16 -2,25l-685 0c3,84 25,145 64,183 39,38 96,58 169,58 53,0 98,-14 136,-40 38,-27 61,-54 70,-83l229 0c-36,114 -92,195 -168,244 -76,49 -168,73 -276,73zm200 -601c-12,-66 -34,-116 -65,-150 -31,-34 -79,-52 -142,-52 -43,0 -78,7 -105,21 -27,14 -49,32 -65,53 -16,21 -28,43 -35,66 -7,23 -11,44 -12,62l424 0zm647 -175l-313 0 0 -197 886 0 0 197 -313 0 0 752 -260 0 0 -752zm1228 -559l974 0 0 237 -685 0 0 248 341 0c66,0 128,7 184,24 57,16 105,40 147,74 41,34 74,76 98,129 24,52 36,113 36,184 0,73 -12,135 -35,187 -23,52 -56,95 -98,129 -42,34 -92,59 -151,75 -59,16 -124,24 -196,24l-615 0 0 -1311zm584 1076c70,0 125,-13 164,-40 39,-26 59,-73 59,-143 0,-35 -6,-63 -17,-87 -11,-23 -26,-42 -46,-56 -21,-14 -45,-24 -72,-30 -28,-6 -58,-10 -89,-10l-294 0 0 366 295 0zm679 -714l249 0 0 643 358 -643 296 0 0 949 -250 0 0 -643 -358 643 -295 0 0 -949zm1487 973c-60,0 -117,-6 -170,-17 -53,-12 -100,-31 -140,-58 -41,-27 -73,-61 -97,-103 -24,-41 -36,-93 -37,-154l248 0c4,51 25,90 59,117 35,27 83,41 143,41 58,0 101,-13 128,-37 27,-25 40,-54 40,-90 0,-39 -12,-71 -37,-96 -25,-25 -67,-36 -126,-36l-101 0 0 -164 68 0c55,0 99,-8 132,-25 32,-18 48,-50 48,-98 0,-28 -12,-53 -36,-74 -24,-22 -61,-32 -113,-32 -52,0 -94,8 -124,26 -30,18 -49,53 -56,104l-242 0c5,-55 20,-102 45,-140 25,-39 57,-70 96,-94 38,-24 82,-42 132,-53 49,-11 101,-16 155,-16 126,0 224,21 293,62 69,41 104,105 104,193 0,28 -6,54 -16,78 -11,24 -24,46 -40,64 -16,18 -34,33 -55,45 -21,12 -41,19 -61,23l0 3c23,3 46,8 69,16 24,8 46,21 66,38 19,19 35,41 48,69 13,27 20,62 20,103 0,52 -11,96 -33,134 -21,38 -51,70 -90,96 -38,25 -84,44 -139,57 -55,12 -115,18 -181,18zm610 -973l260 0 0 345 370 0 0 -345 260 0 0 949 -260 0 0 -399 -370 0 0 399 -260 0 0 -949zm1528 973c-75,0 -142,-12 -202,-36 -60,-24 -111,-57 -153,-102 -41,-44 -74,-97 -96,-158 -23,-61 -34,-128 -34,-201 0,-72 11,-138 34,-199 24,-61 57,-114 100,-159 43,-44 94,-80 153,-105 60,-26 125,-39 198,-39 75,0 142,14 201,42 58,29 106,66 145,113 38,48 68,102 87,164 20,63 30,128 30,195 0,9 0,17 0,25 0,8 -1,16 -3,25l-685 0c4,84 26,145 65,183 39,38 95,58 169,58 52,0 98,-14 136,-40 38,-27 61,-54 69,-83l230 0c-37,114 -93,195 -169,244 -76,49 -168,73 -275,73zm200 -601c-12,-66 -34,-116 -65,-150 -32,-34 -79,-52 -143,-52 -43,0 -78,7 -104,21 -27,14 -49,32 -65,53 -17,21 -28,43 -35,66 -7,23 -11,44 -13,62l425 0zm865 601c-73,0 -138,-12 -196,-36 -59,-24 -110,-57 -151,-100 -42,-43 -74,-94 -98,-153 -23,-60 -35,-125 -35,-196 0,-73 11,-142 33,-205 21,-63 53,-117 94,-163 42,-46 93,-82 152,-107 60,-26 129,-39 206,-39 57,0 111,8 163,22 52,15 98,37 139,67 42,30 75,67 100,113 26,45 41,98 45,158l-256 0c-17,-109 -81,-164 -193,-164 -41,0 -76,10 -104,29 -28,19 -51,44 -69,74 -18,29 -31,62 -38,99 -7,37 -11,73 -11,107 0,34 4,69 11,105 7,35 19,68 36,96 17,29 39,53 67,71 28,18 63,28 103,28 62,0 110,-18 144,-53 34,-35 55,-82 63,-141l252 0c-17,127 -66,223 -147,289 -81,66 -184,99 -310,99zm887 0c-45,0 -88,-6 -127,-16 -39,-11 -74,-29 -103,-52 -29,-23 -52,-53 -68,-88 -17,-35 -25,-78 -25,-126 0,-55 9,-99 28,-134 19,-35 43,-63 74,-84 29,-20 64,-36 102,-46 39,-11 78,-19 117,-25 39,-6 78,-11 116,-15 38,-4 71,-9 101,-16 29,-7 52,-18 70,-32 17,-14 25,-35 23,-62 0,-27 -5,-49 -13,-66 -9,-18 -22,-31 -37,-39 -16,-9 -33,-16 -54,-19 -20,-3 -41,-4 -65,-4 -51,0 -91,11 -121,32 -30,23 -47,59 -51,111l-261 0c3,-60 19,-111 46,-152 27,-41 61,-74 103,-98 41,-25 88,-42 139,-52 52,-11 104,-16 158,-16 48,0 96,3 145,10 49,7 94,20 134,40 40,19 74,47 99,82 26,36 39,82 39,138l0 494c0,43 2,84 8,123 4,39 13,69 25,88l-264 0c-5,-14 -9,-29 -12,-45 -3,-15 -5,-31 -6,-46 -42,42 -91,72 -147,89 -57,17 -114,26 -173,26zm97 -173c52,0 91,-8 119,-26 29,-17 49,-37 63,-61 13,-23 22,-48 25,-72 3,-25 4,-44 4,-59l0 -98c-11,10 -24,18 -40,23 -16,6 -34,11 -53,14 -20,4 -40,7 -61,10 -21,2 -42,5 -63,9 -20,3 -40,8 -58,14 -19,6 -35,15 -49,25 -14,11 -25,24 -34,40 -8,16 -13,36 -13,60 0,25 5,45 13,60 9,15 20,28 35,36 15,10 32,16 52,20 19,3 39,5 60,5zm1212 -1136l276 0 446 817 0 -817 259 0 0 1285 -270 0 -450 -819 0 819 -261 0 0 -1285zm1155 828l553 0 0 180 -553 0 0 -180zm267 -57c-92,0 -165,-27 -220,-80 -55,-53 -82,-126 -82,-217 0,-45 8,-85 23,-122 14,-37 35,-68 61,-93 27,-26 58,-46 96,-60 37,-14 78,-21 123,-21 92,0 165,27 218,81 54,53 80,125 80,215 0,91 -27,164 -81,217 -53,53 -126,80 -218,80zm0 -136c35,0 64,-13 86,-40 22,-26 33,-67 33,-121 0,-56 -12,-96 -34,-122 -22,-25 -51,-38 -87,-38 -36,0 -64,13 -85,40 -22,27 -32,67 -32,120 0,54 10,95 32,121 21,27 50,40 87,40zm1129 650l0 -1285 -207 0c-8,49 -23,90 -46,123 -24,33 -52,59 -86,80 -33,20 -71,34 -113,42 -42,7 -86,11 -132,10l0 196 324 0 0 834 260 0z"/>
  <path class="fil0" d="M12509 3743l115 0 200 534 201 -534 115 0 0 635 -79 0 0 -528 -2 0 -198 528 -73 0 -197 -528 -2 0 0 528 -80 0 0 -635zm955 645c-37,0 -69,-6 -96,-18 -28,-12 -51,-28 -69,-50 -19,-21 -32,-47 -41,-76 -10,-30 -14,-62 -14,-97 0,-35 5,-66 16,-96 10,-29 25,-54 45,-76 19,-21 41,-38 68,-49 26,-12 55,-18 87,-18 41,0 75,8 101,25 27,17 49,39 65,65 17,26 28,54 34,85 6,31 9,60 8,88l-344 0c-1,20 2,39 7,57 5,18 14,34 25,48 12,14 27,25 46,33 18,9 40,13 65,13 32,0 58,-8 78,-22 21,-15 34,-38 41,-68l74 0c-10,52 -32,91 -66,117 -35,26 -78,39 -130,39zm123 -284c-1,-18 -5,-34 -11,-51 -7,-15 -17,-29 -28,-41 -12,-11 -25,-21 -41,-27 -16,-7 -33,-11 -52,-11 -19,0 -37,4 -53,11 -16,6 -29,16 -40,28 -12,12 -20,25 -27,41 -6,16 -10,32 -11,50l263 0zm324 28l-197 -214 94 0 191 214 0 -214 75 0 0 214 192 -214 93 0 -197 214 222 246 -93 0 -191 -205 -26 23 0 182 -75 0 0 -182 -29 -27 -188 209 -93 0 222 -246zm476 179l54 0c7,-12 14,-29 20,-51 7,-21 13,-45 19,-72 6,-26 10,-54 14,-84 3,-29 5,-58 5,-87l0 -99 332 0 0 393 63 0 0 206 -72 0 0 -139 -363 0 0 139 -72 0 0 -206zm369 0l0 -326 -183 0 0 39c0,29 -2,58 -5,87 -3,29 -8,56 -13,81 -5,25 -11,49 -17,69 -6,21 -13,38 -19,50l237 0zm256 250c-9,0 -18,-1 -27,-2 -9,-1 -17,-3 -26,-6l0 -69c8,2 15,4 22,7 7,2 15,3 23,3 15,0 28,-3 37,-10 10,-8 18,-18 25,-32l31 -77 -182 -457 85 0 135 376 1 0 129 -376 80 0 -200 520c-9,23 -17,42 -26,57 -9,16 -18,28 -29,38 -10,10 -21,17 -34,21 -13,5 -27,7 -44,7zm397 -643l76 0 0 184 232 0 0 -184 76 0 0 460 -76 0 0 -212 -232 0 0 212 -76 0 0 -460zm625 470c-21,0 -40,-3 -59,-7 -18,-4 -34,-12 -48,-22 -14,-11 -25,-24 -33,-40 -8,-17 -12,-36 -12,-59 0,-26 4,-48 13,-64 9,-17 21,-30 36,-41 14,-10 30,-18 49,-23 19,-6 38,-10 57,-14 21,-4 41,-7 59,-9 19,-2 36,-5 50,-9 14,-4 25,-9 34,-17 8,-7 12,-18 12,-32 0,-17 -3,-30 -9,-40 -7,-10 -14,-18 -24,-23 -10,-6 -21,-9 -33,-11 -12,-2 -24,-3 -36,-3 -32,0 -59,6 -80,19 -22,12 -33,35 -35,69l-75 0c1,-29 7,-53 18,-73 10,-19 24,-35 42,-47 18,-12 38,-21 61,-26 23,-6 47,-8 73,-8 21,0 42,1 62,4 21,3 39,9 56,18 16,10 30,22 40,39 10,17 15,38 15,65l0 236c0,18 1,31 3,39 2,9 9,13 21,13 5,0 13,-2 23,-5l0 59c-13,8 -31,12 -55,12 -19,0 -35,-6 -46,-17 -12,-11 -18,-29 -18,-54 -20,25 -44,43 -72,54 -27,11 -57,17 -89,17zm17 -66c25,0 46,-4 64,-10 18,-7 32,-16 43,-26 12,-10 20,-22 25,-34 5,-12 8,-23 8,-34l0 -77c-9,7 -22,13 -37,15 -15,4 -32,6 -48,9 -17,2 -34,4 -52,7 -17,2 -32,6 -46,12 -14,6 -25,15 -33,25 -9,11 -13,27 -13,45 0,13 3,23 8,32 4,9 11,16 19,21 8,5 17,9 28,11 11,3 22,4 34,4zm335 -404l76 0 0 63 2 0c12,-26 32,-44 58,-56 27,-11 56,-17 88,-17 36,0 67,6 93,19 27,13 49,31 66,53 17,23 31,48 40,77 8,29 13,60 13,92 0,34 -4,65 -13,93 -8,29 -22,54 -39,76 -17,22 -39,39 -66,51 -26,12 -57,19 -92,19 -12,0 -24,-2 -38,-4 -14,-2 -27,-6 -41,-11 -14,-6 -26,-13 -39,-22 -12,-9 -22,-21 -30,-34l-2 0 0 236 -76 0 0 -635zm218 404c26,0 47,-5 65,-15 18,-10 32,-24 43,-40 10,-17 18,-36 23,-57 5,-22 7,-43 7,-66 0,-21 -3,-42 -8,-63 -6,-20 -15,-38 -26,-54 -12,-16 -27,-29 -45,-39 -18,-9 -39,-14 -63,-14 -26,0 -47,5 -65,15 -18,11 -32,24 -44,40 -11,16 -19,35 -24,55 -5,21 -8,42 -8,64 0,22 3,44 8,65 6,21 14,40 26,56 11,15 26,28 45,38 18,10 40,15 66,15zm505 66c-37,0 -69,-6 -96,-19 -28,-12 -51,-29 -70,-50 -19,-22 -33,-47 -43,-76 -9,-29 -14,-61 -14,-94 0,-34 5,-66 14,-95 10,-29 24,-55 43,-77 19,-21 42,-38 70,-50 27,-13 59,-19 96,-19 36,0 68,6 96,19 28,12 51,29 70,50 19,22 33,48 43,77 9,29 14,61 14,95 0,33 -5,65 -14,94 -10,29 -24,54 -43,76 -19,21 -42,38 -70,50 -28,13 -60,19 -96,19zm0 -66c19,0 38,-4 55,-12 18,-7 33,-19 46,-33 13,-14 23,-33 31,-54 7,-22 11,-46 11,-74 0,-28 -4,-53 -11,-75 -8,-21 -18,-39 -31,-54 -13,-15 -28,-26 -46,-34 -17,-8 -36,-12 -55,-12 -20,0 -38,4 -56,12 -17,8 -32,19 -45,34 -13,15 -24,33 -31,54 -7,22 -11,47 -11,75 0,28 4,52 11,74 7,21 18,40 31,54 13,14 28,26 45,33 18,8 36,12 56,12zm258 -11l54 0c6,-12 13,-29 20,-51 7,-21 13,-45 19,-72 5,-26 10,-54 13,-84 4,-29 6,-58 6,-87l0 -99 332 0 0 393 62 0 0 206 -72 0 0 -139 -363 0 0 139 -71 0 0 -206zm368 0l0 -326 -183 0 0 39c0,29 -1,58 -4,87 -4,29 -8,56 -13,81 -6,25 -11,49 -18,69 -6,21 -12,38 -18,50l236 0zm209 -393l76 0 0 184 233 0 0 -184 75 0 0 460 -75 0 0 -212 -233 0 0 212 -76 0 0 -460zm498 0l76 0 0 177 142 0c45,0 81,12 108,36 27,25 41,59 41,104 0,43 -13,78 -39,104 -26,26 -62,39 -107,39l-221 0 0 -460zm194 393c63,0 95,-25 95,-76 0,-51 -32,-76 -95,-76l-118 0 0 152 118 0zm246 -393l75 0 0 460 -75 0 0 -460zm189 0l76 0 0 375 216 -375 97 0 0 460 -75 0 0 -375 -217 375 -97 0 0 -460zm195 -67c-18,0 -35,-3 -50,-8 -15,-5 -29,-13 -40,-23 -12,-10 -21,-22 -28,-37 -7,-14 -10,-31 -10,-50l63 0c1,44 22,66 64,66 21,0 36,-6 47,-18 11,-11 17,-27 17,-48l63 0c0,18 -3,34 -10,49 -6,15 -15,27 -26,37 -12,10 -25,18 -40,23 -16,6 -32,9 -50,9zm1041 527l-473 0 0 -635 84 0 0 564 317 0 0 -564 85 0 0 564 68 0 0 228 -81 0 0 -157zm350 10c-37,0 -69,-6 -97,-18 -27,-12 -50,-28 -69,-50 -18,-21 -32,-47 -41,-76 -9,-30 -14,-62 -14,-97 0,-35 5,-66 16,-96 11,-29 26,-54 45,-76 19,-21 42,-38 68,-49 27,-12 56,-18 87,-18 41,0 75,8 102,25 27,17 48,39 65,65 16,26 27,54 34,85 6,31 8,60 7,88l-344 0c0,20 2,39 7,57 6,18 14,34 26,48 12,14 27,25 45,33 19,9 40,13 65,13 32,0 59,-8 79,-22 20,-15 34,-38 40,-68l75 0c-10,52 -32,91 -67,117 -34,26 -77,39 -129,39zm123 -284c-1,-18 -5,-34 -12,-51 -7,-15 -16,-29 -28,-41 -11,-11 -25,-21 -40,-27 -16,-7 -33,-11 -52,-11 -20,0 -38,4 -53,11 -16,6 -29,16 -41,28 -11,12 -20,25 -26,41 -7,16 -10,32 -12,50l264 0zm158 -186l76 0 0 184 232 0 0 -184 76 0 0 460 -76 0 0 -212 -232 0 0 212 -76 0 0 -460zm609 67l-164 0 0 -67 404 0 0 67 -164 0 0 393 -76 0 0 -393zm303 -67l75 0 0 63 2 0c12,-26 32,-44 59,-56 26,-11 56,-17 88,-17 35,0 66,6 93,19 26,13 48,31 65,53 18,23 31,48 40,77 9,29 13,60 13,92 0,34 -4,65 -13,93 -8,29 -21,54 -39,76 -17,22 -39,39 -65,51 -27,12 -58,19 -93,19 -11,0 -24,-2 -38,-4 -13,-2 -27,-6 -40,-11 -14,-6 -27,-13 -39,-22 -12,-9 -23,-21 -31,-34l-2 0 0 236 -75 0 0 -635zm218 404c25,0 46,-5 64,-15 18,-10 32,-24 43,-40 11,-17 18,-36 23,-57 5,-22 7,-43 7,-66 0,-21 -3,-42 -8,-63 -6,-20 -15,-38 -26,-54 -12,-16 -26,-29 -44,-39 -18,-9 -40,-14 -64,-14 -25,0 -47,5 -65,15 -18,11 -32,24 -43,40 -12,16 -20,35 -25,55 -5,21 -7,42 -7,64 0,22 2,44 8,65 5,21 13,40 25,56 12,15 26,28 45,38 18,10 40,15 67,15zm504 -15l63 0c11,-22 22,-48 32,-80 10,-32 19,-67 26,-106 8,-38 14,-78 18,-121 4,-43 6,-87 6,-130l0 -127 409 0 0 564 70 0 0 228 -81 0 0 -157 -462 0 0 157 -81 0 0 -228zm469 0l0 -493 -242 0 0 92c0,39 -2,78 -6,118 -4,39 -9,77 -16,112 -7,35 -15,68 -23,97 -9,30 -18,54 -27,74l314 0zm228 -389l76 0 0 375 216 -375 97 0 0 460 -75 0 0 -375 -217 375 -97 0 0 -460zm693 470c-35,0 -66,-6 -93,-17 -26,-12 -49,-27 -67,-48 -18,-21 -32,-46 -41,-74 -9,-29 -14,-60 -14,-95 0,-35 5,-67 13,-97 9,-29 23,-55 41,-78 18,-22 41,-39 67,-52 27,-13 59,-19 96,-19 26,0 50,3 73,9 23,6 43,16 61,29 17,13 31,29 43,49 11,20 18,44 21,71l-78 0c-6,-29 -19,-52 -37,-68 -19,-16 -45,-24 -77,-24 -27,0 -50,5 -68,15 -19,11 -34,24 -44,41 -11,16 -19,35 -24,57 -5,21 -7,44 -7,67 0,21 3,42 8,62 5,20 12,38 23,54 11,16 25,28 41,38 17,9 38,14 62,14 37,0 67,-10 88,-30 21,-19 34,-47 38,-82l78 0c-9,57 -29,101 -63,132 -34,30 -81,46 -140,46zm398 -403l-164 0 0 -67 404 0 0 67 -164 0 0 393 -76 0 0 -393zm427 403c-20,0 -40,-3 -58,-7 -18,-4 -35,-12 -49,-22 -14,-11 -25,-24 -32,-40 -9,-17 -13,-36 -13,-59 0,-26 5,-48 14,-64 9,-17 20,-30 35,-41 14,-10 31,-18 50,-23 18,-6 37,-10 57,-14 21,-4 40,-7 59,-9 19,-2 35,-5 49,-9 15,-4 26,-9 34,-17 8,-7 13,-18 13,-32 0,-17 -4,-30 -10,-40 -6,-10 -14,-18 -24,-23 -10,-6 -20,-9 -32,-11 -13,-2 -25,-3 -37,-3 -31,0 -58,6 -80,19 -21,12 -33,35 -34,69l-76 0c2,-29 7,-53 18,-73 11,-19 25,-35 43,-47 17,-12 38,-21 60,-26 23,-6 48,-8 74,-8 21,0 41,1 62,4 20,3 39,9 55,18 17,10 30,22 40,39 10,17 15,38 15,65l0 236c0,18 1,31 3,39 2,9 9,13 21,13 6,0 13,-2 24,-5l0 59c-14,8 -32,12 -55,12 -19,0 -35,-6 -47,-17 -11,-11 -17,-29 -17,-54 -21,25 -45,43 -72,54 -28,11 -58,17 -90,17zm17 -66c25,0 46,-4 64,-10 18,-7 32,-16 44,-26 11,-10 19,-22 25,-34 5,-12 8,-23 8,-34l0 -77c-10,7 -22,13 -38,15 -15,4 -31,6 -48,9 -17,2 -34,4 -51,7 -17,2 -33,6 -46,12 -14,6 -25,15 -34,25 -8,11 -12,27 -12,45 0,13 2,23 7,32 5,9 11,16 20,21 8,5 17,9 28,11 10,3 21,4 33,4zm334 -404l75 0 0 184 233 0 0 -184 75 0 0 460 -75 0 0 -212 -233 0 0 212 -75 0 0 -460zm855 460l-358 0 0 -460 76 0 0 393 216 0 0 -393 76 0 0 393 62 0 0 206 -72 0 0 -139zm143 -460l76 0 0 375 217 -375 97 0 0 460 -76 0 0 -375 -217 375 -97 0 0 -460zm701 470c-36,0 -68,-6 -96,-19 -27,-12 -51,-29 -70,-50 -18,-22 -33,-47 -42,-76 -10,-29 -15,-61 -15,-94 0,-34 5,-66 15,-95 9,-29 24,-55 42,-77 19,-21 43,-38 70,-50 28,-13 60,-19 96,-19 37,0 69,6 97,19 27,12 51,29 70,50 19,22 33,48 43,77 9,29 14,61 14,95 0,33 -5,65 -14,94 -10,29 -24,54 -43,76 -19,21 -43,38 -70,50 -28,13 -60,19 -97,19zm0 -66c20,0 39,-4 56,-12 18,-7 33,-19 46,-33 13,-14 23,-33 30,-54 8,-22 12,-46 12,-74 0,-28 -4,-53 -12,-75 -7,-21 -17,-39 -30,-54 -13,-15 -28,-26 -46,-34 -17,-8 -36,-12 -56,-12 -19,0 -38,4 -55,12 -17,8 -33,19 -46,34 -13,15 -23,33 -30,54 -8,22 -11,47 -11,75 0,28 3,52 11,74 7,21 17,40 30,54 13,14 29,26 46,33 17,8 36,12 55,12zm313 -404l75 0 0 184 233 0 0 -184 75 0 0 460 -75 0 0 -212 -233 0 0 212 -75 0 0 -460zm497 0l76 0 0 184 233 0 0 -184 75 0 0 460 -75 0 0 -212 -233 0 0 212 -76 0 0 -460zm696 470c-37,0 -69,-6 -96,-19 -28,-12 -51,-29 -70,-50 -19,-22 -33,-47 -43,-76 -9,-29 -14,-61 -14,-94 0,-34 5,-66 14,-95 10,-29 24,-55 43,-77 19,-21 42,-38 70,-50 27,-13 59,-19 96,-19 36,0 68,6 96,19 28,12 51,29 70,50 19,22 33,48 43,77 9,29 14,61 14,95 0,33 -5,65 -14,94 -10,29 -24,54 -43,76 -19,21 -42,38 -70,50 -28,13 -60,19 -96,19zm0 -66c20,0 38,-4 56,-12 17,-7 32,-19 45,-33 13,-14 24,-33 31,-54 7,-22 11,-46 11,-74 0,-28 -4,-53 -11,-75 -7,-21 -18,-39 -31,-54 -13,-15 -28,-26 -45,-34 -18,-8 -36,-12 -56,-12 -19,0 -38,4 -55,12 -18,8 -33,19 -46,34 -13,15 -23,33 -31,54 -7,22 -11,47 -11,75 0,28 4,52 11,74 8,21 18,40 31,54 13,14 28,26 46,33 17,8 36,12 55,12zm314 -404l314 0 0 67 -239 0 0 393 -75 0 0 -460zm573 470c-37,0 -69,-6 -96,-19 -28,-12 -51,-29 -70,-50 -19,-22 -33,-47 -43,-76 -9,-29 -14,-61 -14,-94 0,-34 5,-66 14,-95 10,-29 24,-55 43,-77 19,-21 42,-38 70,-50 27,-13 59,-19 96,-19 36,0 68,6 96,19 28,12 51,29 70,50 19,22 33,48 43,77 9,29 14,61 14,95 0,33 -5,65 -14,94 -10,29 -24,54 -43,76 -19,21 -42,38 -70,50 -28,13 -60,19 -96,19zm0 -66c19,0 38,-4 55,-12 18,-7 33,-19 46,-33 13,-14 23,-33 31,-54 7,-22 11,-46 11,-74 0,-28 -4,-53 -11,-75 -8,-21 -18,-39 -31,-54 -13,-15 -28,-26 -46,-34 -17,-8 -36,-12 -55,-12 -20,0 -38,4 -56,12 -17,8 -32,19 -45,34 -13,15 -24,33 -31,54 -7,22 -11,47 -11,75 0,28 4,52 11,74 7,21 18,40 31,54 13,14 28,26 45,33 18,8 36,12 56,12zm840 70c-51,0 -95,-9 -133,-27 -38,-18 -69,-43 -95,-74 -25,-30 -44,-66 -57,-105 -13,-40 -19,-81 -19,-125 0,-44 6,-85 19,-125 13,-40 32,-75 57,-106 26,-31 57,-56 95,-74 38,-19 82,-28 133,-28 50,0 94,9 132,28 38,18 70,43 95,74 26,31 45,66 57,106 13,40 20,81 20,125 0,44 -7,85 -20,125 -12,39 -31,75 -57,105 -25,31 -57,56 -95,74 -38,18 -82,27 -132,27zm0 -70c38,0 71,-8 99,-23 28,-15 51,-35 69,-60 17,-25 31,-53 39,-84 8,-31 12,-62 12,-94 0,-32 -4,-64 -12,-95 -8,-31 -22,-59 -39,-84 -18,-25 -41,-45 -69,-60 -28,-15 -61,-23 -99,-23 -39,0 -72,8 -100,23 -28,15 -50,35 -68,60 -18,25 -31,53 -39,84 -9,31 -13,63 -13,95 0,32 4,63 13,94 8,31 21,59 39,84 18,25 40,45 68,60 28,15 61,23 100,23zm600 66c-60,0 -107,-15 -144,-46 -37,-30 -60,-77 -69,-140 -4,-25 -5,-53 -5,-84 0,-21 0,-44 2,-68 1,-24 4,-47 8,-70 4,-23 9,-45 16,-67 7,-21 16,-40 27,-58 20,-31 45,-54 74,-69 29,-15 65,-24 109,-27 29,-3 54,-5 73,-9 19,-2 30,-10 33,-22l75 0c-1,23 -6,41 -15,54 -8,12 -21,21 -37,28 -16,6 -36,10 -59,12 -23,2 -50,5 -81,7 -25,2 -47,7 -66,17 -19,11 -35,24 -48,41 -14,17 -25,36 -33,59 -8,23 -14,48 -18,75l3 0c13,-30 33,-55 61,-74 27,-19 61,-29 100,-29 64,0 115,20 152,60 38,40 56,98 56,174 0,39 -5,72 -15,102 -10,29 -25,54 -44,73 -19,20 -42,36 -68,46 -27,10 -55,15 -87,15zm0 -64c18,0 35,-4 52,-11 17,-8 31,-18 44,-33 12,-14 22,-32 30,-53 8,-21 11,-45 11,-73 0,-54 -12,-96 -37,-127 -25,-31 -59,-46 -101,-46 -43,0 -77,15 -102,46 -25,31 -38,74 -38,128 0,52 13,93 38,123 24,31 59,46 103,46zm306 -406l75 0 0 63 2 0c12,-26 32,-44 59,-56 26,-11 56,-17 88,-17 35,0 66,6 93,19 26,13 48,31 65,53 18,23 31,48 40,77 9,29 13,60 13,92 0,34 -4,65 -13,93 -8,29 -21,54 -39,76 -17,22 -39,39 -65,51 -27,12 -58,19 -93,19 -11,0 -24,-2 -38,-4 -13,-2 -27,-6 -40,-11 -14,-6 -27,-13 -39,-22 -12,-9 -23,-21 -31,-34l-2 0 0 236 -75 0 0 -635zm218 404c25,0 46,-5 64,-15 18,-10 32,-24 43,-40 11,-17 18,-36 23,-57 5,-22 7,-43 7,-66 0,-21 -3,-42 -8,-63 -6,-20 -15,-38 -26,-54 -11,-16 -26,-29 -44,-39 -18,-9 -39,-14 -64,-14 -25,0 -47,5 -65,15 -18,11 -32,24 -43,40 -12,16 -20,35 -25,55 -5,21 -7,42 -7,64 0,22 3,44 8,65 5,21 13,40 25,56 12,15 27,28 45,38 18,10 40,15 67,15zm433 66c-20,0 -40,-3 -58,-7 -19,-4 -35,-12 -49,-22 -14,-11 -25,-24 -33,-40 -8,-17 -12,-36 -12,-59 0,-26 5,-48 14,-64 8,-17 20,-30 35,-41 14,-10 31,-18 50,-23 18,-6 37,-10 57,-14 21,-4 40,-7 59,-9 19,-2 35,-5 49,-9 14,-4 26,-9 34,-17 8,-7 12,-18 12,-32 0,-17 -3,-30 -9,-40 -6,-10 -14,-18 -24,-23 -10,-6 -21,-9 -33,-11 -12,-2 -24,-3 -36,-3 -32,0 -58,6 -80,19 -21,12 -33,35 -35,69l-75 0c1,-29 7,-53 18,-73 11,-19 25,-35 43,-47 17,-12 37,-21 60,-26 23,-6 48,-8 74,-8 21,0 41,1 62,4 20,3 38,9 55,18 17,10 30,22 40,39 10,17 15,38 15,65l0 236c0,18 1,31 3,39 2,9 9,13 21,13 5,0 13,-2 23,-5l0 59c-13,8 -31,12 -54,12 -20,0 -35,-6 -47,-17 -11,-11 -17,-29 -17,-54 -21,25 -45,43 -72,54 -28,11 -58,17 -90,17zm17 -66c25,0 46,-4 64,-10 18,-7 32,-16 44,-26 11,-10 19,-22 25,-34 5,-12 8,-23 8,-34l0 -77c-10,7 -22,13 -38,15 -15,4 -31,6 -48,9 -17,2 -34,4 -51,7 -18,2 -33,6 -46,12 -14,6 -25,15 -34,25 -8,11 -13,27 -13,45 0,13 3,23 8,32 5,9 11,16 19,21 8,5 18,9 29,11 10,3 21,4 33,4zm502 66c-61,0 -109,-14 -143,-41 -35,-28 -53,-66 -56,-117l76 0c3,34 15,58 38,73 22,15 50,22 84,22 36,0 64,-7 84,-23 19,-15 29,-35 29,-58 0,-23 -7,-41 -22,-55 -15,-13 -40,-19 -76,-19l-61 0 0 -61 49 0c26,0 49,-6 68,-17 19,-11 29,-30 29,-57 0,-17 -8,-32 -25,-46 -16,-12 -40,-19 -72,-19 -14,0 -27,2 -41,4 -13,3 -25,8 -36,15 -10,6 -19,15 -26,25 -7,11 -12,24 -14,39l-76 0c2,-28 9,-51 20,-70 12,-19 27,-34 45,-45 18,-10 38,-18 60,-23 23,-5 46,-7 69,-7 23,0 46,2 67,7 20,5 38,12 54,23 16,10 28,23 37,38 10,15 14,34 14,55 0,27 -8,49 -23,65 -15,17 -32,27 -51,31l0 2c11,2 22,5 33,11 10,5 20,12 28,22 8,9 15,20 20,33 6,14 8,29 8,47 0,25 -5,46 -16,65 -11,18 -25,33 -43,45 -17,12 -38,21 -60,27 -23,6 -47,9 -71,9zm479 0c-37,0 -69,-6 -96,-19 -28,-12 -51,-29 -70,-50 -19,-22 -33,-47 -43,-76 -9,-29 -14,-61 -14,-94 0,-34 5,-66 14,-95 10,-29 24,-55 43,-77 19,-21 42,-38 70,-50 27,-13 59,-19 96,-19 36,0 68,6 96,19 28,12 51,29 70,50 19,22 33,48 43,77 9,29 14,61 14,95 0,33 -5,65 -14,94 -10,29 -24,54 -43,76 -19,21 -42,38 -70,50 -28,13 -60,19 -96,19zm0 -66c20,0 38,-4 56,-12 17,-7 32,-19 45,-33 13,-14 24,-33 31,-54 7,-22 11,-46 11,-74 0,-28 -4,-53 -11,-75 -7,-21 -18,-39 -31,-54 -13,-15 -28,-26 -45,-34 -18,-8 -36,-12 -56,-12 -20,0 -38,4 -56,12 -17,8 -32,19 -45,34 -13,15 -24,33 -31,54 -7,22 -11,47 -11,75 0,28 4,52 11,74 7,21 18,40 31,54 13,14 28,26 45,33 18,8 36,12 56,12zm312 -404l212 0c20,0 40,2 58,5 19,3 36,8 51,16 15,8 26,20 35,35 9,14 13,33 13,57 0,24 -5,44 -17,60 -12,15 -29,28 -50,38l0 1c27,5 48,18 64,37 15,20 23,45 23,76 0,19 -3,37 -10,54 -7,17 -17,31 -29,43 -12,11 -27,21 -44,28 -18,6 -36,10 -57,10l-249 0 0 -460zm235 396c25,0 44,-7 57,-22 13,-14 19,-33 19,-54 0,-21 -7,-38 -20,-50 -14,-13 -37,-19 -69,-19l-148 0 0 145 161 0zm-31 -207c33,0 55,-6 68,-18 13,-12 19,-27 19,-47 0,-19 -6,-34 -18,-44 -13,-10 -36,-16 -69,-16l-130 0 0 125 130 0zm403 281c-21,0 -40,-3 -59,-7 -18,-4 -34,-12 -48,-22 -14,-11 -25,-24 -33,-40 -8,-17 -12,-36 -12,-59 0,-26 4,-48 13,-64 9,-17 21,-30 35,-41 15,-10 31,-18 50,-23 19,-6 38,-10 57,-14 21,-4 41,-7 59,-9 19,-2 35,-5 50,-9 14,-4 25,-9 34,-17 8,-7 12,-18 12,-32 0,-17 -3,-30 -9,-40 -7,-10 -15,-18 -24,-23 -10,-6 -21,-9 -33,-11 -12,-2 -24,-3 -36,-3 -32,0 -59,6 -80,19 -22,12 -33,35 -35,69l-75 0c1,-29 7,-53 18,-73 10,-19 24,-35 42,-47 18,-12 38,-21 61,-26 23,-6 47,-8 73,-8 21,0 42,1 62,4 21,3 39,9 56,18 16,10 29,22 40,39 10,17 15,38 15,65l0 236c0,18 1,31 3,39 2,9 9,13 21,13 5,0 13,-2 23,-5l0 59c-13,8 -31,12 -55,12 -19,0 -35,-6 -46,-17 -12,-11 -18,-29 -18,-54 -20,25 -44,43 -72,54 -27,11 -57,17 -89,17zm17 -66c25,0 46,-4 64,-10 17,-7 32,-16 43,-26 11,-10 20,-22 25,-34 5,-12 8,-23 8,-34l0 -77c-9,7 -22,13 -37,15 -16,4 -32,6 -49,9 -16,2 -34,4 -51,7 -17,2 -32,6 -46,12 -14,6 -25,15 -33,25 -9,11 -13,27 -13,45 0,13 2,23 7,32 5,9 12,16 20,21 8,5 17,9 28,11 11,3 22,4 34,4zm333 -404l75 0 0 184 233 0 0 -184 76 0 0 460 -76 0 0 -212 -233 0 0 212 -75 0 0 -460zm498 0l75 0 0 375 217 -375 97 0 0 460 -76 0 0 -375 -217 375 -96 0 0 -460zm599 280c-32,-5 -59,-19 -80,-44 -21,-25 -31,-56 -31,-94 0,-43 13,-78 39,-103 26,-26 61,-39 105,-39l233 0 0 460 -76 0 0 -177 -100 0 -140 177 -101 0 151 -180zm190 -62l0 -151 -133 0c-32,0 -55,7 -69,21 -14,13 -22,32 -22,55 0,23 8,42 22,55 14,14 37,20 69,20l133 0z"/>
 </g>
 <g id="Layer-8">
  <metadata id="CorelCorpID_1Corel-Layer"/>
  <path class="fil2" d="M2697 1808c-239,-125 -537,-32 -662,207l-922 1760c-126,240 -33,538 207,663 239,125 537,32 662,-207l923 -1761c125,-239 32,-537 -208,-662z"/>
  <path class="fil3" d="M2479 1750l-1987 -3c-270,-1 -491,220 -492,490 -1,270 220,491 490,492l1988 3c270,0 491,-220 491,-490 1,-270 -220,-491 -490,-492z"/>
  <path class="fil4" d="M3571 4484c-166,0 -330,-84 -421,-236l-307 -508c-139,-231 -65,-534 167,-674 78,-47 166,-70 252,-70 167,0 330,84 422,237l306 507c140,231 65,535 -166,674l0 0c-79,48 -167,70 -253,70z"/>
  <path class="fil5" d="M1849 1512c-167,0 -330,-85 -422,-237l-320 -531c-140,-231 -65,-534 166,-674 79,-47 166,-70 253,-70 166,0 329,84 421,237l321 530c139,232 64,535 -167,674 -79,48 -166,71 -252,71z"/>
  <path class="fil6" d="M3116 1510c-78,0 -156,-18 -229,-57 -239,-126 -330,-425 -204,-663l277 -523c88,-165 259,-260 435,-260 78,0 156,18 229,57 238,126 330,425 204,663l-277 523c-88,165 -259,260 -435,260z"/>
  <path class="fil3" d="M5966 3477c134,0 198,-76 198,-194l0 -417c0,-9 3,-12 11,-12l21 0c8,0 10,3 10,12l0 417c0,142 -79,233 -240,233 -162,0 -241,-91 -241,-233l0 -417c0,-9 3,-12 12,-12l19 0c8,0 11,3 11,12l0 417c0,118 65,194 199,194z"/>
  <path class="fil3" d="M6532 3021c122,0 177,66 177,177l0 294c0,8 -3,11 -11,11l-18 0c-7,0 -10,-3 -10,-11l0 -293c0,-92 -44,-141 -143,-141 -60,0 -108,13 -137,24 -17,8 -19,16 -19,30l0 380c0,8 -3,11 -10,11l-18 0c-8,0 -11,-3 -11,-11l0 -390c0,-29 7,-39 34,-51 35,-13 85,-30 166,-30z"/>
  <path class="fil3" d="M6874 3045l0 447c0,8 -3,11 -11,11l-19 0c-7,0 -10,-3 -10,-11l0 -447 10 -10 19 0c8,0 11,3 11,10zm5 -151l0 6c0,17 -5,23 -23,23l-4 0c-19,0 -24,-5 -24,-23l0 -6c0,-17 5,-23 24,-23l4 0c18,0 23,6 23,23z"/>
  <path class="fil3" d="M7377 3047l-191 448c-4,9 -6,11 -15,11l-11 0c-9,0 -12,-2 -16,-11l-190 -448c-4,-9 -2,-12 8,-12l14 0c13,0 14,2 18,11l146 342c10,26 19,54 25,70l2 0c6,-15 14,-43 25,-69l144 -344c3,-8 5,-10 18,-10l14 0c10,0 13,2 9,12z"/>
  <path class="fil3" d="M7627 3056c-106,0 -158,59 -158,153l0 36 316 0 0 -36c0,-94 -52,-153 -158,-153zm0 -35c132,0 197,77 197,189l0 47c0,13 -6,20 -21,20l-334 0 0 62c0,87 50,143 152,143 86,0 133,-37 162,-90l16 -4 13 7 4 16c-32,60 -89,104 -195,104 -130,0 -192,-71 -192,-180l0 -123c0,-118 68,-191 198,-191z"/>
  <path class="fil3" d="M8152 3021c7,0 10,3 10,11l0 15c0,8 -3,11 -10,11l-29 0c-61,0 -108,12 -138,24 -18,8 -19,16 -19,30l0 380c0,8 -3,11 -10,11l-19 0c-7,0 -11,-3 -11,-11l0 -391c0,-29 8,-39 35,-51 34,-13 84,-28 163,-29l28 0z"/>
  <path class="fil3" d="M8380 3021c105,0 157,39 182,101l-5 15 -14 6c-8,3 -11,2 -15,-5 -21,-49 -58,-81 -148,-81 -90,0 -137,33 -137,95 0,87 68,92 154,100 95,9 173,28 173,130 0,82 -57,133 -181,133 -97,0 -163,-32 -195,-115l6 -14 16 -5c7,-3 10,-2 14,7 24,67 78,93 158,93 99,0 144,-36 144,-97 0,-77 -61,-89 -143,-97 -94,-9 -184,-18 -184,-134 0,-82 58,-132 175,-132z"/>
  <path class="fil3" d="M8712 3045l0 447c0,8 -3,11 -11,11l-18 0c-7,0 -10,-3 -10,-11l0 -447 10 -10 18 0c8,0 11,3 11,10zm6 -151l0 6c0,17 -6,23 -23,23l-5 0c-18,0 -24,-5 -24,-23l0 -6c0,-17 6,-23 24,-23l5 0c17,0 23,6 23,23z"/>
  <path class="fil3" d="M8928 2935l0 100 145 0c8,0 11,3 11,10l0 15c0,8 -3,11 -11,11l-145 0 0 264c0,118 34,143 143,143 8,0 11,3 11,11l0 15c0,9 -3,11 -11,11 -135,1 -183,-37 -183,-179l0 -265 -98 0 -10 -11 0 -15 10 -10 98 0 0 -100c0,-7 3,-10 11,-10l18 0c8,0 11,3 11,10z"/>
  <path class="fil3" d="M9527 3045l0 491c0,120 -53,198 -190,198 -97,0 -148,-44 -178,-103 -5,-9 -4,-14 4,-18l12 -6c10,-5 13,-3 18,4 25,52 65,87 143,87 108,0 152,-61 152,-160l0 -59c-32,12 -81,30 -160,30 -123,0 -177,-66 -177,-176l0 -288c0,-7 3,-10 11,-10l17 0c8,0 11,3 11,10l0 286c0,93 43,142 142,142 74,0 126,-19 156,-31l0 -397c0,-7 3,-10 11,-10l18 0 10 10z"/>
  <path class="fil3" d="M10102 2838l0 15c0,8 -3,10 -11,10 -110,0 -144,29 -144,142l0 30 146 0c8,0 11,3 11,10l0 15c0,8 -3,11 -11,11l-146 0 0 421c0,8 -3,11 -11,11l-18 0c-8,0 -11,-3 -11,-11l0 -421 -94 0c-8,0 -11,-3 -11,-11l0 -15c0,-7 3,-10 11,-10l94 0 0 -30c0,-133 49,-178 178,-178l6 0c8,0 11,2 11,11z"/>
  <path class="fil3" d="M10342 3057c-94,0 -157,47 -157,124l0 175c0,76 63,124 157,124 94,0 157,-48 157,-124l0 -175c0,-77 -63,-124 -157,-124zm0 -36c120,0 196,61 196,161l0 174c0,99 -76,159 -196,159 -119,0 -196,-60 -196,-159l0 -174c0,-100 77,-161 196,-161z"/>
  <path class="fil3" d="M10875 3021c7,0 10,3 10,11l0 15c0,8 -3,11 -10,11l-29 0c-60,0 -108,12 -138,24 -17,8 -19,16 -19,30l0 380c0,8 -3,11 -10,11l-18 0c-8,0 -11,-3 -11,-11l0 -391c0,-29 7,-39 34,-51 34,-13 84,-28 163,-29l28 0z"/>
  <path class="fil3" d="M6012 4137l-239 0 0 272 239 0c89,0 140,-47 140,-136 0,-88 -51,-136 -140,-136zm-15 -298l-224 0 0 260 224 0c85,0 134,-44 134,-131 0,-85 -48,-129 -134,-129zm177 125c0,77 -33,128 -95,150l0 1c75,17 117,72 117,161 0,112 -71,173 -182,173l-272 0c-9,0 -11,-3 -11,-12l0 -625c0,-9 2,-12 11,-12l260 0c109,0 172,58 172,164z"/>
  <path class="fil3" d="M6677 3991l0 391c0,27 -6,38 -34,50 -34,14 -84,30 -165,30 -123,0 -177,-66 -177,-177l0 -294c0,-7 3,-10 11,-10l17 0c8,0 11,3 11,10l0 293c0,93 43,142 142,142 61,0 107,-12 137,-24 17,-8 19,-17 19,-31l0 -380c0,-7 3,-10 11,-10l18 0 10 10z"/>
  <path class="fil3" d="M6961 3967c106,0 158,40 183,101l-5 15 -14 6c-8,4 -11,2 -16,-5 -20,-49 -57,-81 -147,-81 -90,0 -137,33 -137,95 0,87 68,92 154,101 95,9 173,27 173,129 0,82 -57,134 -181,134 -97,0 -163,-33 -195,-115l6 -15 16 -5c7,-2 10,-1 14,7 24,67 78,93 158,93 99,0 144,-36 144,-97 0,-77 -61,-89 -143,-97 -94,-9 -184,-18 -184,-134 0,-82 58,-132 174,-132z"/>
  <path class="fil3" d="M7294 3991l0 447c0,8 -3,11 -11,11l-18 0c-8,0 -10,-3 -10,-11l0 -447 10 -10 18 0c8,0 11,3 11,10zm6 -151l0 6c0,17 -6,24 -23,24l-5 0c-18,0 -24,-6 -24,-24l0 -6c0,-17 6,-23 24,-23l5 0c17,0 23,6 23,23z"/>
  <path class="fil3" d="M7620 3967c123,0 178,66 178,177l0 294c0,8 -3,11 -11,11l-19 0c-7,0 -10,-3 -10,-11l0 -293c0,-92 -44,-141 -142,-141 -61,0 -108,13 -137,24 -18,8 -19,16 -19,30l0 380c0,8 -3,11 -10,11l-19 0c-7,0 -11,-3 -11,-11l0 -390c0,-29 8,-39 35,-51 35,-13 85,-30 165,-30z"/>
  <path class="fil3" d="M8102 4002c-106,0 -158,59 -158,153l0 36 316 0 0 -36c0,-94 -52,-153 -158,-153zm0 -35c132,0 197,77 197,189l0 47c0,13 -6,20 -21,20l-334 0 0 62c0,87 50,143 152,143 86,0 133,-37 162,-90l17 -4 12 7 4 17c-32,59 -89,104 -195,104 -130,0 -192,-72 -192,-180l0 -124c0,-118 68,-191 198,-191z"/>
  <path class="fil3" d="M8561 3967c105,0 157,40 182,101l-5 15 -14 6c-8,4 -11,2 -15,-5 -20,-49 -58,-81 -148,-81 -90,0 -136,33 -136,95 0,87 67,92 153,101 95,9 174,27 174,129 0,82 -58,134 -182,134 -97,0 -163,-33 -195,-115l7 -15 15 -5c7,-2 10,-1 14,7 24,67 78,93 158,93 99,0 144,-36 144,-97 0,-77 -61,-89 -143,-97 -94,-9 -184,-18 -184,-134 0,-82 59,-132 175,-132z"/>
  <path class="fil3" d="M9010 3967c105,0 157,40 183,101l-6 15 -13 6c-8,4 -11,2 -16,-5 -20,-49 -57,-81 -147,-81 -90,0 -137,33 -137,95 0,87 68,92 154,101 95,9 173,27 173,129 0,82 -57,134 -182,134 -97,0 -162,-33 -194,-115l6 -15 16 -5c7,-2 10,-1 13,7 25,67 79,93 158,93 100,0 145,-36 145,-97 0,-77 -61,-89 -144,-97 -94,-9 -183,-18 -183,-134 0,-82 58,-132 174,-132z"/>
  <path class="fil3" d="M10216 4088c70,0 107,-38 107,-101l0 -65c0,-64 -37,-103 -107,-103 -69,0 -106,39 -106,103l0 65c0,63 37,101 106,101zm0 33c-92,0 -141,-50 -141,-133l0 -67c0,-83 49,-134 141,-134 93,0 141,51 141,134l0 67c0,83 -48,133 -141,133zm143 76l0 12c0,10 -4,12 -12,12l-261 0c-9,0 -12,-2 -12,-12l0 -12c0,-9 3,-12 12,-12l261 0c8,0 12,3 12,12zm-354 -385l0 625c0,9 -2,12 -12,12l-18 0 -14 -7 -324 -463c-29,-43 -54,-92 -73,-119l-2 0c0,35 6,94 6,151l0 426c0,9 -3,12 -12,12l-18 0c-9,0 -11,-3 -11,-12l0 -625c0,-9 2,-12 11,-12l19 0 12 7 316 450c34,48 61,100 83,131l3 0c0,-41 -7,-102 -7,-165l0 -412c0,-8 3,-11 11,-11l18 0c10,0 12,3 12,12z"/>
  <path class="fil3" d="M10730 3812l0 625c0,9 -3,12 -11,12l-19 0c-9,0 -12,-3 -12,-12l0 -586 -226 126c-7,4 -11,3 -16,-5l-9 -16 4 -14 246 -137c6,-4 8,-5 17,-5l15 0c8,0 11,3 11,12z"/>
  <path class="fil3" d="M5987 59l0 1453c0,444 178,647 621,647 466,0 621,-223 621,-647l0 -1453 308 0 0 1372c0,648 -230,981 -929,981 -667,0 -929,-311 -929,-948l0 -1405 308 0z"/>
  <path class="fil3" d="M8200 2108l609 0c307,0 608,-20 608,-424 0,-402 -352,-398 -660,-398l-557 0 0 822zm0 -1062l547 0c259,0 570,-19 570,-366 0,-346 -269,-362 -540,-362l-577 0 0 728zm687 -987c381,0 734,152 734,576 0,227 -132,421 -340,495 285,65 444,279 444,583 0,531 -434,650 -874,650l-948 0 0 -2304 984 0z"/>
  <path class="fil3" d="M10714 2363l-302 0 0 -1660 -576 0 0 -207c340,0 583,-81 661,-424l217 0 0 2291z"/>
  <path class="fil7" d="M3762 2729c-269,0 -490,-220 -491,-489l0 0c-1,-270 220,-492 490,-493l614 -2c0,0 1,0 1,0 270,0 491,220 491,489l0 0c1,270 -219,492 -489,493l-614 2c-1,0 -1,0 -2,0z"/>
 </g>
</svg>
